<svg width="327" height="342" viewBox="0 0 327 342" fill="none" xmlns="http://www.w3.org/2000/svg">
<path d="M126.921 340.074C125.63 340.087 124.357 339.766 123.226 339.143L94.2145 322.403C93.4448 322.016 92.7979 321.423 92.3458 320.69C91.8938 319.957 91.6544 319.112 91.6544 318.251C91.6544 317.39 91.8938 316.546 92.3458 315.813C92.7979 315.08 93.4448 314.487 94.2145 314.1L126.869 295.257C128.003 294.642 129.273 294.319 130.564 294.319C131.854 294.319 133.124 294.642 134.259 295.257L163.263 311.991C164.03 312.379 164.675 312.973 165.125 313.706C165.575 314.439 165.814 315.282 165.814 316.142C165.814 317.002 165.575 317.845 165.125 318.578C164.675 319.311 164.03 319.904 163.263 320.293L130.609 339.143C129.48 339.765 128.21 340.085 126.921 340.074Z" fill="#E0E0E0"/>
<path d="M239.498 332.297C259.52 343.843 291.972 343.843 311.986 332.297C332.001 320.751 332.008 302.014 311.986 290.46C291.964 278.907 259.513 278.907 239.498 290.46C219.484 302.014 219.484 320.744 239.498 332.297Z" fill="#E0E0E0"/>
<path opacity="0.1" d="M172.966 11.5759C172.966 11.4633 172.966 11.3507 172.913 11.2456C172.861 11.1405 172.913 11.0955 172.861 11.0204C172.863 11.003 172.863 10.9853 172.861 10.9679C172.848 10.9163 172.83 10.8661 172.808 10.8177C172.812 10.7903 172.812 10.7625 172.808 10.7351C172.788 10.6781 172.763 10.6229 172.733 10.57C172.678 10.4512 172.607 10.3401 172.523 10.2397C172.492 10.1962 172.457 10.156 172.418 10.1196C172.383 10.0763 172.343 10.0384 172.298 10.007C172.234 9.95347 172.166 9.90573 172.095 9.86432L171.975 9.79676C171.614 9.66085 171.225 9.61577 170.842 9.66552C170.46 9.71527 170.096 9.85831 169.782 10.082L57.4673 74.8148C56.498 75.4174 55.7011 76.2605 55.1542 77.262C55.0713 77.3966 54.9985 77.5371 54.9364 77.6824C54.8763 77.795 54.8238 77.9076 54.7712 78.0202C54.7034 78.1621 54.6432 78.3074 54.591 78.4556C54.5309 78.6058 54.4858 78.7559 54.4407 78.9061C54.3957 79.0562 54.3807 79.1238 54.3581 79.2364C54.3514 79.2609 54.3514 79.2869 54.3581 79.3114C54.3581 79.409 54.3131 79.5066 54.2981 79.6042C54.2944 79.6692 54.2944 79.7344 54.2981 79.7994C54.2981 79.8895 54.2981 79.9721 54.2981 80.0621C54.2908 80.2022 54.2908 80.3425 54.2981 80.4825V277.916C54.2981 278.036 54.2981 278.141 54.2981 278.254C54.2981 278.367 54.2981 278.449 54.2981 278.547C54.3126 278.651 54.3352 278.754 54.3656 278.855L54.4107 279.005C54.4312 279.071 54.4563 279.137 54.4858 279.2C54.5766 279.416 54.7093 279.613 54.8763 279.778L54.9965 279.898L55.0791 279.951L55.1993 280.018C55.3323 280.09 55.4735 280.145 55.6198 280.183H55.7926H56.0104C56.5421 280.169 57.0605 280.013 57.5124 279.733L169.729 215.075C170.682 214.455 171.476 213.618 172.045 212.633C172.614 211.648 172.942 210.543 173.003 209.407V11.9738C172.981 11.8236 172.973 11.696 172.966 11.5759Z" fill="black"/>
<path d="M180.01 15.5847C180.01 15.4721 180.01 15.3595 179.958 15.2544C179.905 15.1493 179.958 15.1043 179.905 15.0292C179.908 15.0118 179.908 14.9941 179.905 14.9766C179.892 14.9251 179.875 14.8749 179.853 14.8265C179.857 14.7991 179.857 14.7713 179.853 14.7439C179.832 14.6869 179.807 14.6317 179.778 14.5788C179.722 14.46 179.651 14.3489 179.567 14.2485C179.536 14.205 179.501 14.1648 179.462 14.1283C179.428 14.0851 179.387 14.0472 179.342 14.0157C179.279 13.9623 179.211 13.9145 179.139 13.8731L179.019 13.8055C178.321 13.3927 176.563 12.3792 176.053 12.0864C175.685 11.9158 175.278 11.8473 174.875 11.8883C174.472 11.9292 174.087 12.0781 173.762 12.3192L61.4476 77.0519C60.4779 77.6564 59.679 78.4989 59.127 79.4992C58.9765 79.7525 58.8435 80.0159 58.729 80.2874C58.6163 80.5577 58.5112 80.8279 58.4286 81.0982L58.3159 81.511C58.2249 81.9076 58.1771 82.3128 58.1732 82.7197V280.153C58.1732 280.251 58.1732 280.349 58.1732 280.439C58.1732 280.529 58.1732 280.619 58.1732 280.701L58.2183 280.949C58.2303 281.029 58.2505 281.106 58.2784 281.182C58.3397 281.369 58.4229 281.547 58.5262 281.715C58.6245 281.87 58.749 282.007 58.8942 282.12C58.9544 282.172 59.0198 282.217 59.0895 282.255L59.6527 282.578L60.6441 283.156L61.6654 283.742L61.9508 283.907L62.0334 283.959L62.1536 284.027C62.2867 284.099 62.4279 284.154 62.5742 284.192H62.7469H62.9647C63.4964 284.178 64.0148 284.022 64.4667 283.742L176.751 219.084C177.704 218.463 178.498 217.627 179.067 216.642C179.636 215.657 179.964 214.552 180.025 213.416V15.9826C180.025 15.8324 180.018 15.7048 180.01 15.5847ZM79.2091 81.9615C79.205 81.8839 79.205 81.8063 79.2091 81.7287C79.2091 81.6311 79.2091 81.5336 79.2091 81.4285C79.2699 80.2763 79.6022 79.1548 80.1791 78.1554C80.756 77.1561 81.5611 76.3073 82.5286 75.6781L82.7614 75.558C82.9405 75.4705 83.1264 75.3977 83.3172 75.3403H83.4223C83.5063 75.6537 83.5492 75.9767 83.55 76.3012C83.4863 77.4517 83.1527 78.571 82.576 79.5686C81.9993 80.5663 81.1958 81.4143 80.2305 82.044C79.9477 82.2078 79.6448 82.334 79.3293 82.4194C79.2751 82.2708 79.2348 82.1175 79.2091 81.9615ZM154.01 38.2408C154.071 37.0895 154.403 35.9689 154.978 34.9698C155.554 33.9707 156.357 33.1213 157.322 32.4904C157.417 32.4345 157.514 32.3843 157.615 32.3403L157.78 32.2652L158.006 32.1826L158.223 32.1301C158.305 32.4387 158.345 32.7568 158.344 33.076C158.283 34.2282 157.95 35.3497 157.374 36.349C156.797 37.3483 155.992 38.1972 155.024 38.8263C154.746 38.9926 154.445 39.1165 154.13 39.1942C154.049 38.883 154.008 38.5625 154.01 38.2408Z" fill="#37474F"/>
<path d="M61.2374 84.4987V281.932C61.2065 282.299 61.2578 282.668 61.3878 283.012C61.5177 283.356 61.7229 283.667 61.9884 283.922L59.112 282.263C58.7755 282.031 58.5083 281.713 58.339 281.341C58.1697 280.97 58.1046 280.559 58.1507 280.153V82.7195C58.1911 81.5816 58.522 80.473 59.112 79.499L62.1837 81.2707C61.5958 82.2474 61.2699 83.3592 61.2374 84.4987Z" fill="#292D32"/>
<path d="M180.01 15.5847C180.01 15.4721 180.01 15.3595 179.958 15.2544C179.905 15.1493 179.958 15.1043 179.905 15.0292C179.908 15.0118 179.908 14.9941 179.905 14.9766C179.892 14.9251 179.875 14.8749 179.853 14.8265C179.857 14.7991 179.857 14.7713 179.853 14.7439C179.832 14.6869 179.807 14.6317 179.778 14.5788C179.722 14.46 179.652 14.3489 179.567 14.2485C179.536 14.205 179.501 14.1648 179.462 14.1284C179.428 14.0851 179.387 14.0472 179.342 14.0157C179.279 13.9623 179.211 13.9145 179.139 13.8731L179.019 13.8056C178.658 13.6696 178.269 13.6246 177.887 13.6743C177.504 13.7241 177.14 13.8671 176.826 14.0908L64.5118 78.8235C63.5425 79.4262 62.7456 80.2693 62.1987 81.2708C62.1158 81.4054 62.043 81.5459 61.9809 81.6912C61.9208 81.8038 61.8682 81.9164 61.8157 82.029C61.7479 82.1709 61.6877 82.3162 61.6354 82.4644C61.5753 82.6146 61.5303 82.7647 61.4852 82.9149C61.4402 83.065 61.4251 83.1326 61.4026 83.2452C61.3959 83.2697 61.3959 83.2957 61.4026 83.3202C61.4026 83.4178 61.3575 83.5154 61.3425 83.613C61.3389 83.678 61.3389 83.7432 61.3425 83.8082C61.3425 83.8983 61.3425 83.9808 61.3425 84.0709C61.3352 84.211 61.3352 84.3513 61.3425 84.4913V281.925C61.3425 282.045 61.3425 282.15 61.3425 282.263C61.3425 282.375 61.3425 282.458 61.3425 282.556C61.3571 282.66 61.3797 282.763 61.4101 282.863L61.4552 283.014C61.4756 283.08 61.5007 283.145 61.5303 283.209C61.621 283.425 61.7537 283.622 61.9208 283.787L62.041 283.907L62.1236 283.959L62.2437 284.027C62.3768 284.099 62.518 284.154 62.6643 284.192H62.837H63.0548C63.5866 284.178 64.1049 284.022 64.5569 283.742L176.751 219.084C177.704 218.463 178.498 217.627 179.067 216.642C179.636 215.657 179.964 214.552 180.025 213.416V15.9826C180.025 15.8324 180.018 15.7048 180.01 15.5847ZM79.2092 81.9615C79.205 81.8839 79.205 81.8063 79.2092 81.7288C79.2092 81.6312 79.2092 81.5336 79.2092 81.4285C79.2699 80.2763 79.6023 79.1548 80.1791 78.1554C80.756 77.1561 81.5611 76.3073 82.5287 75.6781L82.7615 75.558C82.9405 75.4705 83.1264 75.3977 83.3172 75.3403H83.4224C83.5063 75.6537 83.5492 75.9767 83.55 76.3012C83.4864 77.4517 83.1527 78.571 82.576 79.5687C81.9994 80.5663 81.1959 81.4143 80.2305 82.044C79.9478 82.2078 79.6448 82.334 79.3293 82.4194C79.2751 82.2708 79.2349 82.1175 79.2092 81.9615ZM154.01 38.2408C154.071 37.0896 154.403 35.9689 154.978 34.9698C155.554 33.9707 156.357 33.1213 157.322 32.4904C157.417 32.4345 157.515 32.3843 157.615 32.3403L157.78 32.2652L158.006 32.1826L158.223 32.1301C158.305 32.4387 158.345 32.7568 158.344 33.076C158.283 34.2282 157.951 35.3497 157.374 36.349C156.797 37.3483 155.992 38.1972 155.024 38.8263C154.746 38.9926 154.445 39.1165 154.13 39.1942C154.049 38.883 154.008 38.5625 154.01 38.2408Z" fill="#455A64"/>
<path d="M63.1525 245.929L178.11 179.59V41.7916L63.1525 108.131V245.929Z" fill="white"/>
<path d="M82.7239 75.5581C82.9015 75.4673 83.0876 75.3943 83.2797 75.3403C83.0888 75.3978 82.903 75.4706 82.7239 75.5581Z" fill="#292D32"/>
<path d="M85.8106 77.5998C85.7469 78.7503 85.4132 79.8696 84.8366 80.8673C84.2599 81.865 83.4564 82.7129 82.4911 83.3427C80.989 84.221 79.6823 83.7781 79.2917 82.3893C79.6072 82.3039 79.9102 82.1777 80.193 82.0139C81.1583 81.3842 81.9618 80.5362 82.5385 79.5386C83.1151 78.5409 83.4488 77.4216 83.5124 76.2711C83.5116 75.9466 83.4687 75.6236 83.3848 75.3102H83.2796C84.7291 74.9499 85.8106 75.7981 85.8106 77.5998Z" fill="#292D32"/>
<path d="M160.642 34.4122C160.581 35.5644 160.249 36.6859 159.672 37.6852C159.095 38.6845 158.29 39.5334 157.322 40.1625C155.82 41.0408 154.521 40.5904 154.13 39.2016C154.445 39.124 154.746 39 155.024 38.8338C155.992 38.2047 156.797 37.3558 157.374 36.3565C157.951 35.3571 158.283 34.2356 158.344 33.0834C158.345 32.7642 158.305 32.4462 158.223 32.1376C159.62 31.7772 160.642 32.648 160.642 34.4122Z" fill="#292D32"/>
<path d="M78.3831 140.261C78.2759 140.262 78.1696 140.241 78.0704 140.201C77.9711 140.161 77.8808 140.101 77.8047 140.026C77.7286 139.95 77.6681 139.861 77.6269 139.762C77.5857 139.663 77.5644 139.557 77.5645 139.45V111.967C77.5646 111.823 77.6029 111.682 77.6755 111.558C77.7481 111.434 77.8523 111.332 77.9775 111.261L98.6304 99.3401C98.7231 99.2869 98.8254 99.2524 98.9315 99.2387C99.0375 99.2249 99.1452 99.2322 99.2484 99.2601C99.3516 99.288 99.4483 99.3359 99.533 99.4012C99.6177 99.4664 99.6887 99.5477 99.7419 99.6404C99.7952 99.733 99.8297 99.8353 99.8434 99.9413C99.8571 100.047 99.8498 100.155 99.8219 100.258C99.794 100.361 99.7461 100.458 99.6808 100.543C99.6155 100.627 99.5342 100.698 99.4415 100.751L79.1641 112.432V139.457C79.1623 139.666 79.0801 139.866 78.9347 140.016C78.7892 140.165 78.5916 140.253 78.3831 140.261Z" fill="#219EBC"/>
<path d="M78.3831 225.292C78.2399 225.294 78.0992 225.255 77.9775 225.18C77.8523 225.109 77.7481 225.007 77.6755 224.883C77.6029 224.759 77.5646 224.618 77.5645 224.474V197.006C77.5839 196.803 77.6782 196.615 77.8288 196.478C77.9795 196.342 78.1758 196.266 78.3793 196.266C78.5829 196.266 78.7791 196.342 78.9298 196.478C79.0804 196.615 79.1747 196.803 79.1942 197.006V223.063L98.6304 211.855C98.7226 211.801 98.8245 211.765 98.9303 211.751C99.0361 211.737 99.1437 211.743 99.247 211.77C99.3503 211.797 99.4472 211.845 99.5321 211.91C99.617 211.974 99.6883 212.055 99.7419 212.147C99.7958 212.241 99.8307 212.343 99.8447 212.45C99.8588 212.557 99.8516 212.665 99.8237 212.769C99.7958 212.873 99.7477 212.97 99.6821 213.056C99.6166 213.141 99.5348 213.212 99.4415 213.266L78.7886 225.18C78.6669 225.255 78.5262 225.294 78.3831 225.292Z" fill="#219EBC"/>
<path d="M162.88 91.4651C162.665 91.4651 162.458 91.3797 162.306 91.2276C162.154 91.0756 162.069 90.8694 162.069 90.6544V64.6126L142.64 75.8206C142.453 75.9281 142.23 75.9568 142.022 75.9005C141.813 75.8442 141.636 75.7074 141.528 75.5203C141.421 75.3331 141.392 75.1109 141.448 74.9026C141.505 74.6942 141.642 74.5168 141.829 74.4092L162.474 62.4957C162.598 62.4252 162.738 62.3882 162.88 62.3882C163.022 62.3882 163.162 62.4252 163.285 62.4957C163.411 62.5662 163.515 62.6686 163.587 62.7926C163.66 62.9166 163.698 63.0577 163.698 63.2013V90.6694C163.694 90.8831 163.606 91.0866 163.453 91.2356C163.3 91.3846 163.094 91.4671 162.88 91.4651Z" fill="#219EBC"/>
<path d="M142.234 188.44C142.091 188.442 141.95 188.405 141.826 188.334C141.702 188.262 141.599 188.159 141.528 188.035C141.475 187.942 141.44 187.84 141.426 187.734C141.412 187.628 141.419 187.52 141.447 187.417C141.475 187.314 141.523 187.217 141.589 187.132C141.654 187.048 141.736 186.977 141.829 186.924L162.106 175.243V148.218C162.126 148.015 162.22 147.827 162.371 147.691C162.521 147.554 162.718 147.478 162.921 147.478C163.125 147.478 163.321 147.554 163.472 147.691C163.622 147.827 163.716 148.015 163.736 148.218V175.686C163.736 175.83 163.698 175.971 163.625 176.095C163.552 176.219 163.448 176.321 163.323 176.392L142.64 188.305C142.518 188.383 142.379 188.429 142.234 188.44Z" fill="#219EBC"/>
<path d="M150.203 158.623L155.745 155.425V140.546C155.693 140.546 155.663 140.546 155.64 140.546L150.45 143.549C150.188 143.699 150.173 143.917 150.173 144.179C150.173 146.356 150.173 148.533 150.173 150.718C150.173 151.071 150.255 151.153 150.526 150.988C151.194 150.575 151.87 150.237 152.546 149.81C152.854 149.614 152.989 149.644 152.981 150.102C152.981 151.011 152.981 151.904 152.981 152.79C153.005 152.942 152.978 153.098 152.905 153.233C152.832 153.369 152.716 153.477 152.576 153.541C151.885 153.916 151.201 154.336 150.511 154.719C150.393 154.775 150.297 154.868 150.237 154.983C150.176 155.097 150.153 155.229 150.173 155.357C150.173 156.446 150.173 157.534 150.173 158.623L147.364 160.244V141.559C146.613 141.987 145.937 142.393 145.253 142.776C144.427 143.248 144.547 143.339 144.502 142.235C144.502 141.327 144.502 140.418 144.502 139.465L141.694 141.086V137.333C140.943 137.716 140.192 138.174 139.441 138.602C138.892 138.917 138.892 138.917 138.892 138.211V135.959C138.892 135.208 138.892 135.208 139.486 134.848L141.679 133.579V129.826C140.86 130.306 140.079 130.734 139.268 131.222C138.982 131.402 138.885 131.327 138.892 130.937C138.892 130.104 138.892 129.285 138.892 128.467C138.892 127.649 138.892 127.717 139.486 127.364L141.701 126.08C141.701 124.924 141.701 123.828 141.701 122.769C141.701 122.357 141.581 122.349 141.311 122.514C140.627 122.935 139.936 123.265 139.253 123.715C138.96 123.895 138.877 123.805 138.885 123.423C138.885 122.499 138.885 121.598 138.885 120.667C138.885 120.277 138.787 120.225 138.502 120.397C137.818 120.818 137.127 121.215 136.444 121.583C136.307 121.649 136.197 121.759 136.13 121.895C136.063 122.031 136.044 122.186 136.076 122.334C136.076 123.257 136.076 124.203 136.076 125.134C136.097 125.252 136.079 125.374 136.027 125.482C135.974 125.59 135.889 125.678 135.783 125.735C134.95 126.2 134.116 126.681 133.282 127.153C133.282 121.283 133.282 115.413 133.282 109.542C133.282 108.484 133.282 108.484 132.471 108.949L130.504 110.083V106.329C131.33 105.856 132.118 105.383 132.914 104.948C133.051 104.881 133.161 104.772 133.229 104.636C133.297 104.5 133.318 104.346 133.29 104.197C133.29 102.043 133.29 99.8881 133.29 97.7186C133.29 97.3132 133.2 97.2156 132.892 97.4033C132.261 97.7937 131.63 98.109 130.999 98.5143C130.601 98.7696 130.451 98.732 130.458 98.139C130.458 96.0746 130.458 94.0402 130.458 91.9758C130.458 91.4878 130.376 91.3602 129.985 91.5929C127.482 93.0543 124.979 94.4981 122.475 95.9244C122.302 96.0019 122.161 96.1348 122.072 96.3021C121.984 96.4694 121.954 96.6615 121.987 96.8478C121.987 98.9047 121.987 100.984 121.987 103.041C122.02 103.229 121.989 103.423 121.9 103.592C121.81 103.761 121.666 103.894 121.491 103.972C120.845 104.31 120.2 104.723 119.554 105.083C119.268 105.256 119.163 105.188 119.171 104.798C119.171 103.912 119.171 103.049 119.171 102.155C119.171 101.712 119.088 101.577 118.735 101.802C118.074 102.215 117.413 102.591 116.76 102.943C116.619 103.006 116.502 103.114 116.429 103.25C116.356 103.386 116.329 103.542 116.354 103.694C116.354 104.595 116.354 105.518 116.354 106.442C116.335 106.652 116.257 106.852 116.129 107.02C115.28 107.538 114.432 108.018 113.538 108.521V101.059C112.637 101.577 111.788 102.058 110.94 102.561C110.827 102.715 110.757 102.896 110.737 103.086C110.737 104.032 110.737 104.97 110.737 105.894C110.767 106.044 110.746 106.2 110.677 106.336C110.607 106.472 110.493 106.581 110.354 106.644C109.67 107.027 108.979 107.448 108.296 107.823C108.158 107.888 108.046 107.997 107.977 108.133C107.907 108.269 107.885 108.424 107.913 108.574C107.913 109.392 107.913 110.218 107.913 111.044C107.913 111.869 107.913 111.794 108.506 111.464C110.008 110.578 111.578 109.685 113.118 108.814C113.253 108.739 113.501 108.761 113.501 108.859C113.501 109.97 113.501 111.111 113.501 112.305C112.667 112.778 111.886 113.251 111.112 113.671C110.963 113.741 110.841 113.858 110.764 114.005C110.688 114.152 110.663 114.319 110.692 114.482C110.692 115.548 110.692 116.629 110.692 117.702L113.486 116.111V119.864L110.789 121.493V125.247C111.593 124.789 112.397 124.338 113.2 123.858C113.501 123.678 113.606 123.723 113.598 124.143C113.598 125.232 113.598 126.29 113.598 127.364L116.512 125.735C116.512 126.981 116.392 128.25 116.467 129.451C118.202 128.452 119.892 127.461 121.619 126.493C121.754 126.41 122.01 126.44 122.017 126.538C122.017 127.649 122.017 128.79 122.017 129.984C119.336 131.538 116.67 133.061 113.996 134.623C113.838 134.713 113.591 134.736 113.591 135.126C113.591 136.259 113.591 137.378 113.591 138.587C114.417 138.106 115.198 137.678 115.971 137.198C116.309 136.995 116.437 137.048 116.422 137.521C116.422 138.414 116.422 139.27 116.422 140.163C116.422 140.644 116.535 140.681 116.873 140.486C118.45 139.555 120.027 138.662 121.604 137.738C121.919 137.551 122.047 137.588 122.04 138.046C122.04 138.932 122.04 139.81 122.04 140.674C122.067 140.839 122.038 141.008 121.958 141.155C121.877 141.302 121.75 141.418 121.596 141.484C120.928 141.852 120.252 142.273 119.584 142.64C119.459 142.7 119.357 142.797 119.292 142.919C119.228 143.041 119.203 143.18 119.223 143.316C119.223 144.172 119.223 145.05 119.223 145.891C119.264 146.089 119.236 146.294 119.145 146.474C119.053 146.654 118.904 146.798 118.72 146.882C118.089 147.205 117.458 147.633 116.828 147.955C116.679 148.025 116.558 148.141 116.482 148.286C116.406 148.431 116.38 148.597 116.407 148.759C116.407 151.101 116.407 153.368 116.407 155.748L113.598 157.369C113.598 158.443 113.598 159.516 113.598 160.597C113.598 160.987 113.696 161.048 113.981 160.875C114.77 160.402 115.566 159.952 116.399 159.471C116.512 161.723 116.399 164.095 116.445 166.377C116.472 166.539 116.445 166.705 116.369 166.85C116.293 166.995 116.172 167.111 116.024 167.181C115.22 167.624 114.409 168.104 113.606 168.577C113.606 169.628 113.606 170.694 113.606 171.737C113.636 171.906 113.608 172.079 113.526 172.23C113.444 172.38 113.313 172.498 113.155 172.563C112.539 172.894 111.923 173.314 111.308 173.614C110.864 173.824 110.774 174.095 110.789 174.628C110.789 175.611 110.789 176.625 110.789 177.63C111.6 177.18 112.404 176.752 113.208 176.272C113.538 176.069 113.621 176.167 113.621 176.595C113.621 178.704 113.621 180.813 113.621 182.908C113.656 183.093 113.628 183.285 113.543 183.454C113.457 183.622 113.318 183.758 113.148 183.839C111.42 184.83 109.723 185.753 108.003 186.842C108.003 187.93 108.003 188.966 108.003 190.009C108.003 190.422 108.093 190.512 108.401 190.325C109.07 189.912 109.745 189.574 110.421 189.146C110.714 188.966 110.834 189.011 110.827 189.439C110.827 190.347 110.827 191.241 110.827 192.126C110.844 192.278 110.814 192.431 110.741 192.565C110.669 192.699 110.557 192.808 110.421 192.877C109.738 193.253 109.047 193.628 108.364 194.071C108.206 194.2 108.089 194.372 108.026 194.566C108.026 195.692 108.026 196.818 108.026 197.952L113.636 194.716C113.636 193.643 113.636 192.614 113.636 191.601C113.604 191.438 113.628 191.27 113.703 191.122C113.778 190.973 113.899 190.854 114.049 190.783C114.732 190.415 115.423 190.032 116.107 189.597C116.399 189.416 116.49 189.507 116.482 189.889C116.482 190.813 116.482 191.714 116.482 192.637C116.482 192.975 116.535 193.11 116.82 192.937C118.472 191.969 120.117 191.023 121.762 190.085C121.878 190.026 121.973 189.932 122.032 189.816C122.091 189.7 122.113 189.568 122.092 189.439C122.092 188.531 122.092 187.6 122.092 186.699C122.075 186.548 122.104 186.396 122.175 186.262C122.246 186.128 122.356 186.018 122.49 185.948C123.166 185.58 123.834 185.198 124.51 184.785C124.826 184.589 124.908 184.725 124.901 185.115C124.901 185.963 124.901 186.789 124.901 187.645C124.901 188.2 125.014 188.253 125.412 188.028C128.063 186.444 130.706 185.025 133.357 183.388C133.357 179.875 133.357 176.377 133.357 172.879C133.357 172.398 133.432 172.128 133.83 171.948C134.461 171.625 135.092 171.197 135.723 170.874C135.884 170.808 136.017 170.688 136.099 170.535C136.181 170.381 136.208 170.204 136.174 170.033C136.174 169.133 136.174 168.202 136.174 167.293C136.153 167.158 136.176 167.019 136.24 166.898C136.303 166.776 136.404 166.678 136.527 166.618C137.233 166.235 137.931 165.829 138.629 165.409C138.907 165.236 138.982 165.342 138.982 165.687C138.982 166.648 138.982 167.586 138.982 168.547C138.982 168.885 139.073 168.952 139.313 168.802C140.154 168.307 140.943 167.864 141.791 167.368C141.791 169.816 141.791 172.158 141.791 174.493C141.8 174.604 141.774 174.715 141.716 174.811C141.658 174.907 141.571 174.982 141.468 175.026C140.755 175.438 140.041 175.836 139.328 176.264C139.05 176.429 138.967 176.339 138.975 175.986C138.975 175.063 138.975 174.162 138.975 173.239C138.975 172.871 138.915 172.736 138.607 172.924C137.924 173.344 137.24 173.742 136.549 174.117C136.416 174.189 136.308 174.298 136.238 174.432C136.168 174.566 136.141 174.718 136.159 174.868C136.159 175.701 136.159 176.534 136.159 177.398C136.159 177.931 136.264 178.036 136.662 177.788C137.413 177.308 138.164 176.902 138.967 176.444V180.048L141.776 178.426C141.776 177.48 141.776 176.587 141.776 175.686C141.776 174.635 141.656 174.808 142.467 174.342C143.969 173.472 145.471 172.593 146.973 171.752C147.138 171.676 147.273 171.546 147.355 171.384C147.438 171.223 147.465 171.038 147.431 170.859C147.319 166.723 148.04 167.631 144.938 169.17C144.818 169.23 144.608 169.17 144.608 169.05C144.608 167.954 144.608 166.835 144.608 165.679C146.305 164.621 147.972 163.728 149.669 162.722C150.24 162.391 150.24 162.391 150.24 161.603C150.143 160.605 150.12 159.674 150.203 158.623ZM113.636 116.111V112.357C114.574 111.824 115.468 111.254 116.399 110.691C116.399 109.61 116.467 108.506 116.467 107.433C116.445 107.305 116.464 107.173 116.522 107.057C116.58 106.941 116.674 106.846 116.79 106.787C117.541 106.389 118.224 105.976 118.938 105.556C119.193 105.406 119.268 105.496 119.268 105.819C119.268 109.262 119.268 112.705 119.268 116.148C119.286 116.285 119.261 116.425 119.197 116.547C119.132 116.67 119.031 116.769 118.908 116.831C118.217 117.207 117.533 117.582 116.843 118.017C116.557 118.19 116.452 118.13 116.46 117.74C116.46 116.644 116.46 115.6 116.46 114.519L113.636 116.111ZM118.84 124.323C118.089 124.744 117.338 125.209 116.55 125.66C116.488 125.527 116.44 125.389 116.407 125.247C116.407 124.301 116.407 123.347 116.407 122.409C116.384 122.273 116.405 122.134 116.467 122.011C116.53 121.888 116.629 121.788 116.752 121.726C117.451 121.351 118.149 120.975 118.848 120.517C119.141 120.345 119.223 120.457 119.216 120.825C119.216 121.726 119.216 122.627 119.216 123.505C119.247 123.668 119.223 123.837 119.149 123.985C119.074 124.133 118.952 124.252 118.803 124.323H118.84ZM139.193 142.513L141.686 141.094V144.802C140.792 145.32 139.936 145.823 139.073 146.304C139.012 146.304 138.9 146.191 138.9 146.071C138.9 145.08 138.9 144.067 138.9 143.068C138.885 142.957 138.905 142.843 138.957 142.744C139.01 142.644 139.092 142.563 139.193 142.513ZM133.568 130.787C134.319 130.359 135.017 129.954 135.746 129.518C135.986 129.376 136.091 129.421 136.091 129.758C136.091 130.719 136.091 131.673 136.091 132.619C136.106 132.748 136.081 132.878 136.019 132.992C135.957 133.106 135.862 133.199 135.746 133.257C135.047 133.647 134.341 134.007 133.643 134.473C133.342 134.653 133.275 134.525 133.275 134.158C133.275 133.114 133.275 132.086 133.275 131.05C133.364 130.955 133.462 130.869 133.568 130.794V130.787ZM133.282 138.849C133.262 138.72 133.285 138.587 133.348 138.472C133.41 138.357 133.508 138.265 133.628 138.211C133.988 138.016 134.341 137.806 134.702 137.596C135.062 137.386 135.415 137.198 135.768 136.98C136.001 136.838 136.091 136.913 136.084 137.22C136.084 138.196 136.084 139.165 136.084 140.126C136.1 140.246 136.077 140.368 136.019 140.475C135.961 140.582 135.871 140.667 135.761 140.719C135.01 141.124 134.334 141.529 133.613 141.957C133.372 142.107 133.275 142.04 133.282 141.702C133.29 140.756 133.29 139.803 133.282 138.857V138.849ZM130.473 117.124C130.494 117.251 130.474 117.381 130.416 117.496C130.358 117.61 130.265 117.704 130.151 117.762C129.4 118.168 128.694 118.588 127.973 119.016C127.777 119.129 127.665 119.129 127.665 118.821C127.665 117.695 127.665 116.569 127.665 115.435C128.468 114.97 129.272 114.519 130.075 114.039C130.361 113.866 130.451 113.941 130.443 114.332C130.458 115.277 130.466 116.238 130.473 117.132V117.124ZM124.841 120.315C124.869 120.464 124.848 120.618 124.78 120.754C124.712 120.889 124.602 120.999 124.465 121.065C123.782 121.441 123.091 121.816 122.408 122.251C122.115 122.424 122.025 122.334 122.032 121.959C122.032 119.789 122.032 117.635 122.032 115.48C122.032 115.24 122.032 114.992 122.287 114.835L127.672 111.734V115.488C126.921 115.946 126.088 116.441 125.299 116.861C125.125 116.941 124.982 117.077 124.895 117.247C124.808 117.417 124.781 117.612 124.818 117.8C124.856 118.588 124.826 119.466 124.841 120.322V120.315ZM122.032 104.227C122.003 104.077 122.025 103.922 122.094 103.786C122.163 103.65 122.276 103.541 122.415 103.476C123.001 103.154 123.594 102.801 124.187 102.463C124.938 102.035 124.833 102.193 124.833 101.194C124.833 100.444 124.833 99.6479 124.833 98.8897C124.816 98.739 124.845 98.5866 124.916 98.4526C124.987 98.3186 125.097 98.2093 125.231 98.139C125.907 97.7712 126.576 97.3883 127.252 96.9754C127.567 96.7802 127.687 96.8403 127.68 97.2907C127.68 98.3867 127.68 99.3777 127.68 100.474L130.473 98.8597C130.473 100.061 130.473 101.179 130.473 102.32C130.405 102.509 130.282 102.674 130.12 102.793C128.386 103.814 126.643 104.783 124.908 105.901C124.908 106.982 124.856 108.086 124.856 109.152C124.879 109.288 124.858 109.429 124.794 109.552C124.73 109.676 124.628 109.775 124.503 109.835C123.812 110.21 123.129 110.586 122.445 111.021C122.16 111.194 122.047 111.141 122.055 110.751C122.05 108.569 122.042 106.394 122.032 104.227ZM116.46 155.658C117.316 155.162 118.172 154.659 119.028 154.156C119.096 154.156 119.216 154.261 119.216 154.374C119.216 155.375 119.216 156.396 119.216 157.437C119.197 157.594 119.128 157.741 119.02 157.857C118.172 158.368 117.331 158.848 116.46 159.358V155.658ZM119.231 187.262C119.249 187.4 119.224 187.54 119.158 187.663C119.092 187.786 118.988 187.885 118.863 187.945C118.164 188.335 117.466 188.741 116.76 189.161C116.52 189.304 116.414 189.251 116.422 188.906C116.422 188.426 116.422 187.96 116.422 187.48C116.422 186.999 116.422 186.504 116.422 185.978C116.462 185.778 116.558 185.593 116.7 185.445C117.451 184.995 118.157 184.597 118.878 184.169C119.141 184.011 119.208 184.132 119.208 184.447C119.223 185.393 119.223 186.324 119.231 187.254V187.262ZM119.231 176.001C119.21 176.208 119.135 176.405 119.013 176.572C118.179 177.082 117.346 177.555 116.445 178.073V175.544C116.445 174.357 116.445 174.35 117.323 173.847L119.328 172.728C119.232 173.822 119.194 174.919 119.216 176.016L119.231 176.001ZM121.551 171.407C120.8 171.798 120.049 172.27 119.298 172.706C119.192 171.626 119.162 170.54 119.208 169.455C119.208 169.103 119.126 169.012 118.855 169.178C118.157 169.598 117.451 170.003 116.752 170.379C116.64 170.446 116.429 170.379 116.422 170.274C116.422 169.178 116.422 168.059 116.422 166.858L118.592 165.612C119.283 165.206 119.223 165.334 119.223 164.381V157.767L121.056 156.709C122.025 156.145 122.025 156.145 122.025 157.459C122.025 161.791 122.025 166.13 122.025 170.461C122.04 170.972 121.942 171.204 121.536 171.422L121.551 171.407ZM127.274 179.35C124.202 180.941 124.938 181.602 124.856 177.465C124.856 177.105 124.766 177.037 124.503 177.203C121.349 178.907 122.182 179.41 122.04 175.393C122.014 175.23 122.042 175.063 122.121 174.918C122.2 174.773 122.324 174.657 122.475 174.59C124.21 173.607 125.945 172.593 127.687 171.587C127.687 173.899 127.687 176.227 127.687 178.531C127.721 178.698 127.697 178.871 127.619 179.023C127.541 179.174 127.414 179.295 127.259 179.365L127.274 179.35ZM130.488 169.958L127.672 171.58C127.672 169.23 127.672 166.88 127.672 164.531C127.658 164.412 127.68 164.291 127.736 164.185C127.793 164.078 127.881 163.992 127.988 163.938C128.739 163.532 129.445 163.112 130.173 162.684C130.361 162.571 130.481 162.564 130.481 162.872C130.466 165.206 130.473 167.549 130.473 169.973L130.488 169.958ZM130.488 158.217C130.506 158.368 130.477 158.52 130.406 158.654C130.335 158.788 130.225 158.898 130.09 158.968C129.422 159.328 128.746 159.719 128.078 160.132C127.777 160.312 127.657 160.274 127.672 159.846C127.672 158.931 127.672 158.052 127.672 157.144C127.672 156.739 127.597 156.641 127.282 156.829C126.598 157.257 125.907 157.579 125.224 158.037C124.946 158.202 124.826 158.157 124.833 157.759C124.833 156.821 124.833 155.89 124.833 154.959C124.813 154.823 124.838 154.684 124.905 154.563C124.971 154.443 125.075 154.347 125.201 154.291C125.915 153.893 126.628 153.465 127.349 153.06C127.459 153.01 127.549 152.926 127.607 152.82C127.665 152.715 127.688 152.594 127.672 152.475C127.672 151.409 127.672 150.32 127.672 149.179C125.937 150.08 124.21 151.146 122.475 152.144C122.137 152.339 122.017 152.279 122.025 151.814C122.025 150.906 122.025 150.012 122.025 149.119C121.995 148.969 122.017 148.814 122.086 148.678C122.156 148.541 122.269 148.433 122.408 148.368C123.076 147.993 123.752 147.618 124.428 147.212C124.569 147.149 124.685 147.042 124.759 146.906C124.832 146.77 124.858 146.614 124.833 146.461C124.833 141.657 124.886 136.777 124.788 132.003C123.992 132.468 123.226 132.889 122.46 133.362C122.115 133.572 122.01 133.482 122.017 133.024C122.017 131.988 122.017 130.975 122.017 129.879L127.657 126.628V123.625C127.657 122.875 127.657 122.875 128.213 122.559C128.769 122.244 129.452 121.869 130.068 121.486C130.383 121.291 130.466 121.396 130.458 121.794C130.458 124.128 130.458 126.403 130.458 128.737L133.26 127.123V131.005C133.17 131.016 133.081 131.039 132.997 131.072C131.232 132.123 129.467 133.039 127.702 134.173V137.866L129.888 136.605C130.481 136.267 130.481 136.267 130.481 137.033V147.542C132.223 146.529 133.936 145.561 135.678 144.54C135.993 144.352 136.114 144.39 136.099 144.847C136.099 145.718 136.099 146.582 136.099 147.43C136.133 147.608 136.107 147.792 136.024 147.952C135.941 148.113 135.805 148.241 135.64 148.316C133.913 149.284 132.216 150.283 130.481 151.281C130.473 153.623 130.466 155.92 130.481 158.232L130.488 158.217ZM141.694 159.779C139.028 161.325 136.384 162.842 133.718 164.396C133.38 164.591 133.275 164.538 133.275 164.073C133.275 160.715 133.275 157.364 133.275 154.021C133.246 153.843 133.276 153.66 133.362 153.501C133.448 153.343 133.583 153.216 133.748 153.143C136.251 151.721 138.755 150.28 141.258 148.819C141.626 148.601 141.724 148.684 141.724 149.164C141.686 152.715 141.701 156.228 141.694 159.779ZM94.3121 172.165C94.0342 172.331 93.9216 172.293 93.9216 171.903C93.9216 169.718 93.9216 167.549 93.9216 165.379C93.9029 165.23 93.9295 165.079 93.9978 164.945C94.066 164.811 94.1729 164.701 94.3046 164.628C95.9418 163.698 97.574 162.757 99.2012 161.806C99.4941 161.633 99.5692 161.731 99.5692 162.106C99.5692 163.202 99.5692 164.283 99.5692 165.372C101.289 164.381 103.009 163.375 104.729 162.406C104.888 162.34 105.02 162.221 105.102 162.07C105.184 161.918 105.211 161.743 105.179 161.573C105.179 160.537 105.179 159.479 105.179 158.428C103.309 159.321 101.424 160.612 99.5692 161.566C99.5692 160.454 99.5692 159.404 99.5692 158.338C99.5692 157.977 99.4791 157.902 99.2162 158.06C98.5253 158.473 97.8419 158.81 97.1584 159.261C96.843 159.449 96.7529 159.358 96.7529 158.953C96.7529 156.618 96.7529 154.351 96.7529 152.009C95.0181 153.015 93.3132 153.983 91.5784 155.012C91.2179 155.23 91.0978 155.14 91.1128 154.652C91.1128 153.781 91.1128 152.917 91.1128 152.069C91.0783 151.899 91.1035 151.723 91.1843 151.57C91.265 151.417 91.3963 151.296 91.5559 151.228C94.222 149.682 96.8881 148.226 99.5542 146.582C99.5542 144.179 99.5542 141.845 99.5542 139.502C99.5542 139.195 99.4265 139.21 99.2388 139.322C98.4877 139.743 97.7818 140.171 97.0533 140.576C96.9455 140.631 96.8578 140.719 96.8026 140.827C96.7473 140.934 96.7273 141.057 96.7454 141.177C96.7454 142.303 96.7454 143.354 96.7454 144.502L94.8829 145.583C93.9141 146.139 93.9141 146.139 93.9141 144.832V142.385C93.0879 142.866 92.3369 143.324 91.5859 143.721C91.1879 143.924 91.0978 144.172 91.0978 144.652C91.0978 146.904 91.1503 149.156 91.0978 151.499L85.5628 154.697C85.4802 155.853 85.5628 156.866 85.5177 157.992C85.5177 158.428 85.6379 158.45 85.9308 158.27C86.6217 157.857 87.3051 157.519 87.9961 157.076C88.2439 156.926 88.334 157.001 88.334 157.332C88.334 158.27 88.334 159.208 88.334 160.132C88.3546 160.278 88.3269 160.426 88.255 160.555C88.1831 160.684 88.0711 160.786 87.936 160.845C87.2826 161.213 86.6217 161.596 85.9608 161.971C85.8049 162.045 85.6774 162.168 85.5974 162.321C85.5175 162.474 85.4895 162.649 85.5177 162.819C85.5177 165.071 85.4802 167.428 85.5177 169.688C86.3438 169.215 87.1249 168.75 87.9435 168.307C88.0561 168.239 88.2664 168.307 88.2664 168.367C88.2664 169.5 88.2664 170.619 88.2664 171.873L85.5177 173.457V177.21C86.3438 176.73 87.1249 176.294 87.9059 175.821C88.1988 175.649 88.289 175.731 88.2814 176.107C88.2814 177.052 88.2814 177.976 88.2814 178.914C88.2814 179.237 88.3641 179.327 88.6194 179.177C89.3304 178.752 90.0438 178.339 90.7598 177.938C90.8753 177.876 90.9689 177.781 91.028 177.664C91.0871 177.547 91.1088 177.415 91.0902 177.285C91.0902 176.204 91.0902 175.123 91.0902 174.02L93.8465 172.428C93.884 173.479 93.8465 174.538 93.8465 175.611C93.8465 175.979 93.9141 176.107 94.2145 175.926C94.9204 175.498 95.6189 175.093 96.3173 174.71C96.4563 174.647 96.5694 174.538 96.6377 174.401C96.706 174.265 96.7255 174.109 96.6928 173.96C96.6928 172.894 96.6928 171.813 96.6928 170.732C95.9493 171.227 95.1307 171.685 94.3121 172.165ZM91.1203 173.997C90.2266 174.515 89.3854 175.011 88.5368 175.498C88.4692 175.498 88.334 175.416 88.334 175.311C88.334 174.207 88.334 173.059 88.334 171.903C89.2277 171.385 90.0538 170.904 90.8724 170.454C90.9626 170.401 91.1128 170.506 91.1203 170.619C91.1278 171.692 91.1203 172.811 91.1203 173.997ZM93.5461 161.355C92.9828 161.663 92.4195 161.993 91.8563 162.324C91.0377 162.812 91.1053 162.616 91.1053 163.705C91.1053 164.456 91.1053 165.244 91.1053 166.002C91.1261 166.141 91.1025 166.282 91.0377 166.406C90.9729 166.53 90.8703 166.631 90.7448 166.693C90.0463 167.083 89.3479 167.443 88.6494 167.901C88.3791 168.067 88.2965 167.969 88.2965 167.624C88.2965 166.52 88.2965 165.424 88.2965 164.328C88.2965 163.232 88.2965 162.241 88.2965 161.205C88.2653 161.042 88.2888 160.874 88.3636 160.726C88.4383 160.578 88.5599 160.459 88.7095 160.387C90.3092 159.486 91.9164 158.555 93.516 157.617C93.7939 157.452 93.9141 157.489 93.9065 157.887C93.9065 158.81 93.9065 159.726 93.9065 160.627C93.9311 160.771 93.9095 160.919 93.8448 161.05C93.78 161.181 93.6754 161.288 93.5461 161.355ZM136.624 114.061L155.745 103.026V77.5624C155.745 76.8117 155.745 76.8117 155.167 77.1269L136.624 87.8244C136.084 88.1322 136.084 88.1397 136.084 88.8529V113.626C136.084 114.339 136.084 114.339 136.624 114.031V114.061ZM139.365 89.9639C143.721 87.4616 148.075 84.9592 152.426 82.4569C152.861 82.2092 152.951 82.3593 152.944 82.8923C152.944 85.79 152.944 88.6802 152.944 91.5704C152.944 94.4606 152.944 97.3583 152.944 100.241C152.978 100.436 152.947 100.637 152.854 100.813C152.762 100.988 152.614 101.127 152.433 101.209C148.077 103.712 143.724 106.214 139.373 108.716C139.005 108.927 138.877 108.881 138.877 108.364C138.877 102.538 138.877 96.7177 138.877 90.9023C138.844 90.714 138.874 90.5201 138.963 90.3505C139.051 90.1809 139.192 90.0451 139.365 89.9639ZM86.0434 143.263C92.2568 139.67 98.4652 136.084 104.669 132.506C105.209 132.198 105.209 132.198 105.209 131.478V106.704C105.209 105.991 105.209 105.991 104.669 106.299C98.3 110 91.9013 113.596 85.5703 117.349C85.5102 125.892 85.5703 134.353 85.5703 142.873C85.5102 143.391 85.6153 143.474 86.0134 143.263H86.0434ZM88.349 120.052C88.3234 119.88 88.3533 119.704 88.4343 119.55C88.5154 119.396 88.6433 119.272 88.7997 119.196C93.1956 116.694 97.589 114.159 101.98 111.592C102.333 111.381 102.408 111.524 102.408 111.952C102.408 114.91 102.408 117.852 102.408 120.795C102.408 123.738 102.408 126.583 102.408 129.466C102.438 129.645 102.407 129.829 102.322 129.989C102.236 130.149 102.1 130.276 101.935 130.351C97.559 132.854 93.1806 135.381 88.7997 137.934C88.4692 138.129 88.3415 138.084 88.3415 137.618C88.3365 131.743 88.329 125.88 88.319 120.029L88.349 120.052ZM104.714 173.667C98.33 177.365 91.9489 181.051 85.5703 184.725C85.5027 193.283 85.5703 201.75 85.5703 210.286C85.5703 210.811 85.6754 210.894 86.0735 210.661C92.4621 206.963 98.8507 203.274 105.239 199.596C105.239 191.088 105.239 182.58 105.239 174.072C105.187 173.494 105.082 173.412 104.684 173.644L104.714 173.667ZM101.935 197.757C97.564 200.259 93.1981 202.779 88.8372 205.316C88.4467 205.541 88.3415 205.436 88.349 204.941C88.349 199.13 88.349 193.328 88.349 187.532C88.3123 187.337 88.3418 187.135 88.4329 186.958C88.5241 186.781 88.6716 186.64 88.8522 186.556C91.0452 185.31 93.2457 184.034 95.4386 182.765C97.6316 181.497 99.7795 180.273 101.95 179.012C102.318 178.794 102.416 178.892 102.408 179.372C102.408 185.213 102.408 191.05 102.408 196.886C102.424 197.062 102.384 197.239 102.294 197.392C102.204 197.544 102.067 197.664 101.905 197.734L101.935 197.757ZM155.745 110.496L152.974 112.094C152.974 110.961 152.974 109.91 152.974 108.844C152.974 108.491 152.891 108.401 152.613 108.566C151.915 108.987 151.216 109.392 150.518 109.775C150.393 109.838 150.291 109.94 150.227 110.066C150.164 110.192 150.142 110.334 150.165 110.473C150.165 111.396 150.165 112.327 150.165 113.273C150.165 113.633 150.255 113.693 150.518 113.536C151.209 113.115 151.892 112.785 152.583 112.327C152.899 112.132 152.981 112.245 152.974 112.642C152.974 113.551 152.974 114.452 152.974 115.33C152.997 115.483 152.969 115.64 152.894 115.775C152.82 115.911 152.703 116.018 152.561 116.081C150.818 117.072 149.121 118.063 147.371 119.083C147.371 120.292 147.371 121.441 147.371 122.574C147.371 122.672 147.574 122.717 147.679 122.657C148.325 122.311 148.971 121.906 149.617 121.553C150.263 121.2 150.15 121.253 150.15 121.981C150.15 124.053 150.15 126.118 150.15 128.189C150.15 128.595 150.248 128.685 150.556 128.497C151.216 128.092 151.877 127.747 152.531 127.341C152.854 127.146 152.974 127.206 152.966 127.649C152.966 128.49 152.966 129.316 152.966 130.119C153.012 130.323 152.985 130.536 152.89 130.722C152.796 130.908 152.64 131.056 152.448 131.14C150.743 132.063 149.061 133.137 147.356 134.037C147.356 131.733 147.356 129.481 147.356 127.176C147.356 126.711 147.251 126.628 146.913 126.846C146.252 127.251 145.591 127.596 144.93 127.987C144.784 128.056 144.664 128.171 144.588 128.315C144.512 128.458 144.485 128.622 144.51 128.783C144.51 131.08 144.465 133.414 144.51 135.689C145.441 135.126 146.335 134.66 147.259 134.188C147.259 135.411 147.326 136.567 147.311 137.843C148.122 137.371 148.866 136.98 149.564 136.5C150.007 136.214 150.105 136.372 150.082 136.92C150.082 137.798 150.082 138.639 150.082 139.51C150.082 139.825 150.15 139.93 150.413 139.773C151.164 139.345 151.84 138.932 152.553 138.542C152.67 138.482 152.764 138.388 152.825 138.273C152.886 138.157 152.909 138.025 152.891 137.896C152.891 137.04 152.891 136.177 152.891 135.314C152.891 134.608 152.891 134.6 153.432 134.293L155.64 133.016C155.768 129.346 155.64 125.795 155.693 122.161C155.693 121.809 155.58 121.794 155.347 121.936C154.656 122.342 153.973 122.687 153.282 123.13C152.974 123.317 152.876 123.22 152.884 122.814C152.884 121.906 152.884 121.013 152.884 120.127C152.854 119.977 152.876 119.822 152.946 119.686C153.015 119.549 153.128 119.441 153.267 119.376C153.913 119.023 154.559 118.626 155.204 118.273C155.378 118.198 155.521 118.067 155.611 117.901C155.701 117.735 155.732 117.543 155.7 117.357C155.708 115.075 155.783 112.748 155.715 110.473L155.745 110.496ZM110.774 155.192C110.774 154.284 110.774 153.375 110.774 152.467C110.774 151.401 110.774 151.401 111.578 150.966L113.553 149.832V142.378L110.864 143.932C110.811 143.985 110.765 144.045 110.729 144.112C110.753 144.167 110.768 144.225 110.774 144.284C110.774 146.537 110.774 148.789 110.774 151.041C110.791 151.16 110.769 151.282 110.711 151.387C110.653 151.493 110.562 151.577 110.451 151.626C109.7 152.032 109.024 152.437 108.311 152.865C108.041 153.023 107.958 152.932 107.958 152.58C107.958 151.656 107.958 150.755 107.958 149.832C107.958 149.457 107.883 149.359 107.59 149.532C105.968 150.478 104.353 151.409 102.731 152.332C102.592 152.396 102.479 152.505 102.41 152.641C102.34 152.777 102.319 152.933 102.348 153.083C102.348 153.991 102.348 154.907 102.348 155.823C102.348 156.213 102.438 156.296 102.723 156.115C103.407 155.703 104.098 155.365 104.781 154.922C105.074 154.742 105.164 154.839 105.157 155.215C105.157 156.311 105.157 157.399 105.157 158.488C107.049 157.272 108.897 156.243 110.774 155.192ZM153.372 164.276C154.048 163.923 154.716 163.525 155.392 163.127C155.516 163.065 155.616 162.966 155.68 162.843C155.743 162.72 155.766 162.58 155.745 162.444C155.745 161.505 155.745 160.552 155.745 159.591C155.745 159.283 155.663 159.216 155.437 159.358C154.686 159.786 153.98 160.207 153.252 160.612C153.138 160.674 153.046 160.771 152.989 160.888C152.933 161.005 152.914 161.137 152.936 161.265C152.936 162.181 152.936 163.104 152.936 164.005C152.953 164.157 152.923 164.31 152.851 164.444C152.778 164.578 152.667 164.687 152.531 164.756C151.855 165.124 151.186 165.507 150.511 165.912C150.377 165.972 150.266 166.075 150.196 166.203C150.126 166.332 150.099 166.48 150.12 166.625C150.12 168.782 150.12 170.942 150.12 173.104C150.12 173.532 150.24 173.562 150.533 173.382C151.329 172.901 152.125 172.458 152.921 172L155.392 170.574C155.51 170.522 155.608 170.434 155.671 170.321C155.733 170.208 155.757 170.078 155.738 169.951C155.738 169.005 155.738 168.052 155.738 167.091C155.738 166.723 155.632 166.685 155.377 166.843C154.686 167.256 154.003 167.594 153.312 168.037C153.034 168.209 152.921 168.134 152.929 167.751C152.929 166.865 152.929 165.987 152.929 165.116C152.903 164.948 152.932 164.776 153.012 164.626C153.092 164.476 153.218 164.356 153.372 164.283V164.276ZM110.789 136.83C110.781 136.706 110.763 136.583 110.737 136.462L108.251 137.896C107.981 138.046 107.981 138.271 107.981 138.519C107.981 140.704 107.981 142.873 107.981 145.058C107.981 145.493 108.108 145.508 108.394 145.335C109.131 144.84 109.919 144.425 110.744 144.097C110.772 143.945 110.79 143.792 110.797 143.639L110.789 136.83ZM113.238 164.996L107.981 167.999C107.981 169.073 107.981 170.138 107.981 171.22C107.981 171.64 108.093 171.677 108.386 171.505C110.121 170.491 111.856 169.493 113.583 168.502C113.583 167.406 113.583 166.317 113.583 165.214C113.606 164.854 113.493 164.831 113.238 164.981V164.996ZM104.894 143.564C104.143 144.007 103.392 144.427 102.641 144.847C102.54 144.896 102.457 144.976 102.403 145.074C102.35 145.172 102.328 145.284 102.34 145.395C102.34 146.394 102.34 147.4 102.34 148.398C102.34 148.729 102.461 148.736 102.671 148.608C103.039 148.383 103.422 148.181 103.782 147.963C104.143 147.745 104.533 147.58 104.849 147.332C104.992 147.188 105.091 147.006 105.134 146.807C105.134 145.793 105.134 144.795 105.134 143.804C105.179 143.504 105.142 143.421 104.894 143.549V143.564ZM88.0261 145.816C87.2751 146.214 86.5241 146.642 85.7731 147.092C85.6374 147.22 85.5411 147.384 85.4952 147.565C85.4952 148.691 85.4952 149.817 85.4952 150.988C86.3889 150.47 87.2225 149.997 88.0561 149.487C88.1777 149.362 88.2566 149.201 88.2814 149.029C88.2814 148.015 88.2814 147.009 88.2814 146.026C88.304 145.906 88.1312 145.771 88.0261 145.823V145.816ZM110.789 132.206C110.789 132.521 110.842 132.641 111.105 132.483C111.856 132.056 112.554 131.635 113.283 131.23C113.391 131.176 113.479 131.09 113.535 130.984C113.592 130.877 113.614 130.756 113.598 130.637C113.598 129.541 113.598 128.43 113.598 127.326L110.812 128.94C110.789 130.036 110.797 131.117 110.789 132.213V132.206ZM104.864 136.079L102.686 137.34C102.577 137.395 102.489 137.483 102.432 137.59C102.376 137.698 102.354 137.821 102.37 137.941C102.37 138.924 102.37 139.908 102.37 140.899C102.37 141.192 102.468 141.222 102.671 141.101C103.422 140.666 104.173 140.238 104.886 139.818C104.986 139.769 105.068 139.689 105.121 139.591C105.174 139.493 105.194 139.38 105.179 139.27C105.179 138.782 105.179 138.286 105.179 137.768C105.179 137.25 105.179 136.785 105.179 136.267C105.187 136.004 105.089 135.952 104.864 136.087V136.079ZM96.813 167.001V170.717L99.6068 169.11V165.357L96.813 167.001ZM108.288 119.181C108.181 119.237 108.093 119.324 108.036 119.432C107.98 119.539 107.958 119.661 107.973 119.782C107.973 120.728 107.973 121.666 107.973 122.627C107.973 123.032 108.101 123.04 108.364 122.882C109.167 122.402 109.971 121.951 110.774 121.493V117.74C109.948 118.22 109.115 118.701 108.288 119.159V119.181ZM108.356 126.598C108.217 126.661 108.103 126.77 108.033 126.906C107.964 127.043 107.942 127.199 107.973 127.349C107.973 128.255 107.973 129.17 107.973 130.096C107.973 130.494 108.078 130.547 108.356 130.374C109.16 129.894 109.971 129.436 110.774 128.97V125.217C109.971 125.682 109.16 126.155 108.356 126.598ZM144.195 113.393C143.443 113.821 142.738 114.241 142.009 114.647C141.902 114.701 141.814 114.788 141.758 114.894C141.701 115 141.679 115.121 141.694 115.24C141.694 116.223 141.694 117.222 141.694 118.198C141.694 118.325 141.821 118.475 141.889 118.438C142.738 117.98 143.586 117.477 144.48 116.936C144.48 115.743 144.48 114.684 144.48 113.551C144.502 113.273 144.39 113.281 144.195 113.393ZM107.981 179.582C107.981 180.603 107.981 181.632 107.981 182.645C107.981 182.75 108.116 182.863 108.191 182.825C109.039 182.36 109.888 181.857 110.752 181.361V177.608L108.334 179.034C108.222 179.073 108.126 179.148 108.062 179.247C107.998 179.346 107.969 179.465 107.981 179.582ZM138.614 154.059C138.246 154.231 137.863 154.471 137.503 154.682C137.142 154.892 136.752 155.117 136.391 155.32C136.29 155.368 136.206 155.447 136.151 155.545C136.096 155.643 136.072 155.756 136.084 155.868C136.084 156.866 136.084 157.88 136.084 158.871C136.084 158.991 136.249 159.111 136.339 159.066C137.09 158.66 137.841 158.225 138.592 157.759C138.722 157.621 138.81 157.45 138.847 157.264C138.847 156.251 138.847 155.245 138.847 154.261C138.87 154.164 138.712 154.044 138.614 154.089V154.059ZM110.354 162.879C110.51 162.812 110.64 162.694 110.72 162.544C110.801 162.394 110.828 162.221 110.797 162.053C110.797 161.018 110.797 159.959 110.797 158.908L113.583 157.279V153.571L110.797 155.177C110.797 156.416 110.797 157.654 110.797 158.931C109.993 159.388 109.19 159.869 108.386 160.304C108.253 160.376 108.145 160.486 108.075 160.619C108.005 160.753 107.978 160.905 107.996 161.055C107.996 162.114 107.996 163.195 107.996 164.268L99.5992 169.125C99.5992 170.214 99.5992 171.31 99.5992 172.406C99.5992 172.781 99.7044 172.803 99.9597 172.653L108.011 167.999C108.011 166.753 108.011 165.514 108.011 164.246C108.777 163.825 109.565 163.345 110.354 162.909V162.879ZM142.174 103.319C144.825 101.772 147.431 100.263 150.105 98.732C150.188 95.1512 150.105 91.683 150.15 88.1247C150.15 87.5842 150.022 87.5166 149.632 87.7493C146.981 89.3333 144.375 90.7521 141.694 92.3811C141.694 95.9169 141.694 99.4227 141.694 102.966C141.686 103.514 141.806 103.567 142.174 103.349V103.319ZM91.1053 132.221C91.1053 132.649 91.1954 132.739 91.5258 132.544C92.8026 131.793 94.0793 131.042 95.356 130.291C96.6327 129.541 97.8569 128.835 99.1111 128.137C99.2691 128.071 99.3999 127.953 99.4818 127.803C99.5638 127.653 99.5919 127.48 99.5617 127.311C99.5617 123.933 99.5617 120.555 99.5617 117.154C99.5617 116.749 99.4716 116.666 99.1636 116.839C96.6102 118.34 94.0567 119.814 91.5033 121.261C91.3702 121.332 91.2618 121.442 91.1921 121.576C91.1225 121.71 91.0948 121.861 91.1128 122.011C91.1278 125.479 91.1278 128.858 91.1203 132.251L91.1053 132.221ZM99.1336 184.349C96.4825 185.903 93.8765 187.412 91.1879 188.944C91.1128 192.524 91.1879 195.993 91.1503 199.543C91.1503 200.069 91.2555 200.174 91.661 199.934C94.3121 198.35 96.9181 196.931 99.5992 195.302C99.5992 191.766 99.5992 188.26 99.5992 184.725C99.5767 184.222 99.4791 184.124 99.1336 184.349Z" fill="#292D32"/>
<path d="M94.1394 245.711C94.1634 244.954 94.2539 244.201 94.4098 243.459C94.5628 242.743 94.7945 242.045 95.1007 241.38C95.4024 240.737 95.7861 240.137 96.2423 239.593C96.7007 239.052 97.2496 238.595 97.8644 238.242C98.3423 237.925 98.8984 237.745 99.4716 237.724C99.6832 237.723 99.8929 237.763 100.089 237.843C100.285 237.923 100.463 238.04 100.613 238.189C100.944 238.553 101.184 238.991 101.312 239.466C101.48 240.088 101.573 240.728 101.589 241.372C101.589 241.613 101.589 241.883 101.589 242.183C101.589 242.483 101.589 242.784 101.589 243.106C101.589 243.429 101.589 243.73 101.589 244.03C101.589 244.33 101.589 244.608 101.589 244.863C101.56 245.579 101.475 246.292 101.334 246.995C101.195 247.688 100.978 248.363 100.688 249.007L101.642 250.561C101.652 250.613 101.652 250.666 101.642 250.719C101.651 250.841 101.625 250.963 101.567 251.071C101.525 251.166 101.457 251.246 101.372 251.304L100.17 251.995C100.02 252.07 99.9072 252.07 99.8321 251.995C99.7645 251.92 99.7044 251.852 99.6669 251.8L99.2613 251.139C99.0508 251.362 98.825 251.57 98.5854 251.762C98.35 251.953 98.0988 252.124 97.8344 252.272C97.3504 252.59 96.7906 252.774 96.2122 252.805C95.7856 252.805 95.376 252.638 95.0707 252.34C94.7363 251.98 94.4987 251.541 94.3797 251.064C94.2161 250.443 94.1254 249.806 94.1094 249.165C94.1094 248.917 94.1094 248.647 94.1094 248.354C94.1094 248.061 94.1094 247.753 94.1094 247.43C94.1094 247.108 94.1094 246.8 94.1094 246.5C94.1094 246.199 94.1319 245.959 94.1394 245.711ZM99.8772 242.498C99.9319 241.832 99.7214 241.171 99.2914 240.659C98.9309 240.359 98.4578 240.374 97.8644 240.712C97.2411 241.089 96.7444 241.643 96.4375 242.303C96.0622 243.089 95.8623 243.947 95.8517 244.818C95.8517 245.321 95.8517 245.877 95.8517 246.485C95.8517 247.093 95.8517 247.633 95.8517 248.114C95.8216 248.441 95.858 248.772 95.9586 249.085C96.0593 249.399 96.2222 249.689 96.4375 249.938C96.798 250.238 97.2711 250.216 97.8644 249.878C98.4858 249.502 98.9822 248.951 99.2914 248.294C99.6657 247.51 99.8656 246.655 99.8772 245.786C99.8772 245.283 99.8772 244.728 99.8772 244.127C99.8772 243.527 99.8847 242.979 99.8847 242.498H99.8772Z" fill="#FAFAFA"/>
<path d="M106.884 233.265C107.943 232.656 108.739 232.574 109.287 233.009C109.836 233.445 110.113 234.331 110.113 235.674C110.119 236.582 109.977 237.484 109.693 238.347C109.418 239.155 108.993 239.904 108.439 240.554L110.189 244.36C110.215 244.421 110.228 244.488 110.226 244.555C110.227 244.675 110.198 244.794 110.144 244.9C110.108 245 110.039 245.085 109.948 245.141L108.874 245.764C108.702 245.861 108.581 245.876 108.499 245.764C108.426 245.696 108.367 245.614 108.326 245.523L106.644 241.965L104.962 242.941V247.483C104.959 247.631 104.923 247.778 104.856 247.911C104.81 248.031 104.725 248.134 104.616 248.203L103.595 248.796C103.562 248.826 103.519 248.842 103.475 248.842C103.43 248.842 103.387 248.826 103.354 248.796C103.316 248.754 103.287 248.704 103.269 248.65C103.251 248.595 103.244 248.538 103.249 248.481V235.877C103.252 235.728 103.288 235.582 103.354 235.449C103.403 235.328 103.487 235.223 103.595 235.149L106.884 233.265ZM104.984 240.501L106.817 239.443C107.278 239.187 107.674 238.827 107.973 238.392C108.284 237.869 108.433 237.265 108.401 236.658C108.401 235.907 108.258 235.524 107.973 235.449C107.564 235.393 107.15 235.498 106.817 235.742L104.984 236.8V240.501Z" fill="#FAFAFA"/>
<path d="M120.094 234.961C120.104 234.8 120.15 234.644 120.23 234.503C120.283 234.397 120.363 234.306 120.462 234.241L121.491 233.648C121.527 233.62 121.57 233.605 121.615 233.605C121.66 233.605 121.704 233.62 121.739 233.648C121.778 233.691 121.806 233.743 121.821 233.799C121.837 233.855 121.84 233.913 121.829 233.97C121.798 234.56 121.713 235.146 121.574 235.72C121.418 236.353 121.191 236.968 120.898 237.551C120.584 238.169 120.195 238.746 119.741 239.27C119.261 239.821 118.693 240.287 118.059 240.652C117.597 240.951 117.063 241.122 116.512 241.147C116.087 241.146 115.678 240.982 115.371 240.689C115.011 240.335 114.752 239.892 114.62 239.405C114.432 238.761 114.329 238.095 114.312 237.424C114.312 236.936 114.312 236.395 114.312 235.802C114.312 235.209 114.312 234.654 114.312 234.143C114.342 233.355 114.445 232.57 114.62 231.801C114.789 231.067 115.041 230.354 115.371 229.676C115.673 229.039 116.056 228.443 116.512 227.905C116.948 227.381 117.472 226.937 118.059 226.591C118.563 226.264 119.142 226.07 119.741 226.028C120.161 226.019 120.57 226.157 120.898 226.418C121.217 226.702 121.451 227.068 121.574 227.477C121.721 227.944 121.807 228.429 121.829 228.918C121.837 229.069 121.806 229.219 121.739 229.354C121.682 229.468 121.597 229.566 121.491 229.639L120.462 230.232C120.426 230.254 120.385 230.265 120.342 230.265C120.3 230.265 120.258 230.254 120.222 230.232C120.147 230.194 120.102 230.089 120.087 229.932C120.062 229.703 120.001 229.48 119.907 229.271C119.824 229.09 119.691 228.937 119.524 228.828C119.339 228.723 119.126 228.679 118.915 228.7C118.611 228.746 118.32 228.853 118.059 229.016C117.729 229.212 117.436 229.467 117.196 229.766C116.948 230.066 116.741 230.396 116.58 230.75C116.408 231.118 116.282 231.507 116.204 231.906C116.115 232.313 116.062 232.728 116.046 233.145C116.046 233.648 116.046 234.196 116.046 234.796C116.046 235.397 116.046 235.937 116.046 236.418C116.055 236.781 116.108 237.141 116.204 237.491C116.267 237.755 116.396 237.998 116.58 238.197C116.743 238.362 116.963 238.458 117.196 238.467C117.504 238.464 117.804 238.37 118.059 238.197C118.378 238.018 118.667 237.79 118.915 237.521C119.15 237.267 119.357 236.987 119.531 236.688C119.691 236.406 119.822 236.11 119.922 235.802C120.007 235.528 120.065 235.247 120.094 234.961Z" fill="#FAFAFA"/>
<path d="M123.008 229.046C123.039 228.301 123.129 227.561 123.279 226.831C123.433 226.117 123.665 225.423 123.97 224.759C124.271 224.117 124.655 223.516 125.111 222.973C125.567 222.427 126.117 221.967 126.733 221.614C127.214 221.303 127.769 221.124 128.341 221.096C128.553 221.093 128.764 221.134 128.96 221.215C129.156 221.297 129.334 221.417 129.482 221.569C129.82 221.928 130.06 222.367 130.181 222.845C130.353 223.466 130.446 224.107 130.458 224.752C130.458 224.992 130.458 225.262 130.458 225.555C130.458 225.848 130.458 226.163 130.458 226.478C130.458 226.794 130.458 227.109 130.458 227.409C130.458 227.709 130.458 227.987 130.458 228.242C130.436 228.985 130.345 229.724 130.188 230.45C130.035 231.166 129.803 231.863 129.497 232.529C129.195 233.17 128.808 233.768 128.348 234.308C127.892 234.847 127.346 235.302 126.733 235.652C126.249 235.968 125.689 236.15 125.111 236.177C124.9 236.179 124.69 236.138 124.494 236.058C124.298 235.979 124.12 235.861 123.97 235.712C123.632 235.354 123.394 234.914 123.279 234.436C123.118 233.815 123.028 233.178 123.008 232.536C123.008 232.296 123.008 232.026 123.008 231.733C123.008 231.44 123.008 231.125 123.008 230.81C123.008 230.495 123.008 230.179 123.008 229.879C123.008 229.579 123.001 229.301 123.008 229.046ZM128.746 225.833C128.776 225.504 128.739 225.172 128.638 224.858C128.538 224.543 128.375 224.252 128.16 224.001C127.8 223.693 127.327 223.708 126.733 224.054C126.109 224.429 125.611 224.983 125.307 225.645C124.934 226.432 124.735 227.289 124.721 228.16C124.721 228.663 124.721 229.218 124.721 229.819C124.721 230.419 124.721 230.968 124.721 231.455C124.692 231.783 124.729 232.113 124.83 232.426C124.931 232.74 125.093 233.03 125.307 233.28C125.667 233.58 126.14 233.557 126.733 233.212C127.356 232.841 127.853 232.292 128.16 231.636C128.536 230.852 128.736 229.997 128.746 229.128C128.746 228.625 128.746 228.07 128.746 227.469C128.746 226.869 128.761 226.321 128.746 225.84V225.833Z" fill="#FAFAFA"/>
<path d="M135.603 216.689C136.093 216.375 136.652 216.184 137.233 216.134C137.443 216.119 137.654 216.149 137.852 216.222C138.05 216.294 138.23 216.407 138.382 216.554C138.731 216.908 138.976 217.353 139.088 217.838C139.27 218.506 139.371 219.194 139.388 219.887C139.428 220.833 139.428 221.794 139.388 222.77C139.36 223.575 139.259 224.377 139.088 225.165C138.938 225.89 138.703 226.596 138.389 227.267C138.092 227.896 137.711 228.482 137.255 229.008C136.798 229.524 136.26 229.963 135.663 230.307L132.471 232.146C132.437 232.174 132.395 232.19 132.351 232.19C132.307 232.19 132.265 232.174 132.231 232.146C132.194 232.103 132.167 232.052 132.15 231.998C132.134 231.944 132.128 231.887 132.133 231.831V219.219C132.133 219.071 132.166 218.925 132.231 218.791C132.28 218.672 132.364 218.57 132.471 218.498L135.603 216.689ZM137.676 220.878C137.667 220.515 137.614 220.155 137.518 219.805C137.452 219.539 137.317 219.296 137.127 219.099C137.04 219.017 136.938 218.952 136.826 218.91C136.713 218.867 136.594 218.847 136.474 218.851C136.139 218.875 135.816 218.983 135.535 219.166L133.838 220.142V228.918L135.603 227.905C135.942 227.705 136.247 227.452 136.504 227.154C136.754 226.853 136.966 226.523 137.135 226.17C137.305 225.801 137.434 225.413 137.518 225.014C137.608 224.6 137.661 224.178 137.676 223.753C137.716 222.777 137.716 221.819 137.676 220.878Z" fill="#FAFAFA"/>
<path d="M146.951 221.336C146.984 221.306 147.027 221.29 147.071 221.29C147.115 221.29 147.158 221.306 147.191 221.336C147.229 221.377 147.258 221.426 147.277 221.479C147.295 221.532 147.301 221.588 147.296 221.644V223.025C147.294 223.176 147.258 223.325 147.191 223.46C147.144 223.581 147.06 223.684 146.951 223.753L141.393 226.959C141.36 226.988 141.317 227.005 141.273 227.005C141.229 227.005 141.186 226.988 141.153 226.959C141.115 226.916 141.086 226.866 141.068 226.812C141.05 226.758 141.043 226.7 141.048 226.643V214.077C141.051 213.928 141.086 213.782 141.153 213.649C141.202 213.527 141.285 213.423 141.393 213.349L146.853 210.203C146.886 210.174 146.929 210.157 146.973 210.157C147.018 210.157 147.06 210.174 147.093 210.203C147.13 210.247 147.157 210.297 147.174 210.351C147.191 210.405 147.197 210.462 147.191 210.518V211.9C147.191 212.048 147.158 212.194 147.093 212.328C147.044 212.447 146.961 212.549 146.853 212.62L142.76 214.985V218.085L146.575 215.886C146.608 215.856 146.651 215.84 146.695 215.84C146.74 215.84 146.783 215.856 146.816 215.886C146.852 215.929 146.879 215.98 146.896 216.034C146.913 216.088 146.919 216.145 146.913 216.201V217.582C146.913 217.731 146.88 217.877 146.816 218.01C146.767 218.13 146.683 218.232 146.575 218.303L142.76 220.503V223.746L146.951 221.336Z" fill="#FAFAFA"/>
<path d="M124.939 336.658L95.9344 319.918C95.3671 319.549 94.8952 319.052 94.5571 318.466C94.2191 317.88 94.0245 317.223 93.9892 316.547V312.606C94.0256 311.931 94.2207 311.274 94.5587 310.688C94.8967 310.103 95.368 309.605 95.9344 309.235L128.596 290.4C129.2 290.093 129.867 289.933 130.545 289.933C131.222 289.933 131.89 290.093 132.494 290.4L161.468 307.126C162.034 307.496 162.506 307.993 162.844 308.579C163.182 309.165 163.377 309.822 163.413 310.497V314.423C163.378 315.098 163.183 315.756 162.845 316.341C162.507 316.927 162.035 317.425 161.468 317.793L128.806 336.643C128.208 336.948 127.546 337.108 126.874 337.111C126.202 337.113 125.54 336.958 124.939 336.658Z" fill="#145F71"/>
<path d="M128.596 290.4L95.9345 309.25C94.8605 309.866 94.8605 310.879 95.9345 311.503L124.939 328.243C125.542 328.55 126.21 328.71 126.888 328.71C127.565 328.71 128.233 328.55 128.836 328.243L161.468 309.371C162.542 308.755 162.542 307.742 161.468 307.118L132.494 290.4C131.89 290.093 131.222 289.933 130.545 289.933C129.868 289.933 129.2 290.093 128.596 290.4Z" fill="#219EBC"/>
<path d="M126.921 328.686V337.116C126.244 337.129 125.575 336.969 124.976 336.651L95.972 319.91C95.4062 319.542 94.9352 319.046 94.5972 318.461C94.2593 317.877 94.0639 317.221 94.0269 316.547V312.598C94.0599 311.996 94.2187 311.407 94.4928 310.869C94.767 310.331 95.1506 309.857 95.619 309.476C94.9131 310.091 95.0332 310.924 95.972 311.472L124.976 328.213C125.572 328.537 126.243 328.7 126.921 328.686Z" fill="#1A7E96"/>
<path d="M124.158 310.669C124.42 309.603 126.253 308.545 128.1 308.417L129.82 308.275C130.782 308.192 131.66 307.689 131.795 307.134C131.931 306.578 131.27 306.203 130.293 306.285L128.574 306.428C126.755 306.568 124.989 307.103 123.399 307.997C121.897 308.853 120.943 309.911 120.68 311L119.103 317.426C118.555 319.625 121.214 321.179 125.021 320.841L126.741 320.699C128.559 320.558 130.325 320.022 131.916 319.13C133.418 318.266 134.364 317.208 134.627 316.127L135.378 313.064C135.513 312.516 134.852 312.133 133.876 312.216C132.899 312.298 132.036 312.801 131.901 313.349L131.15 316.412C130.887 317.471 129.054 318.529 127.207 318.664L125.479 318.807C123.579 318.965 122.25 318.191 122.52 317.095L124.128 310.624L124.158 310.669ZM136.73 307.667L138.329 301.196C138.452 300.669 138.388 300.116 138.146 299.632C137.905 299.148 137.502 298.764 137.007 298.546C135.582 297.851 133.984 297.59 132.411 297.795L130.676 297.907C128.86 298.049 127.097 298.584 125.509 299.476C124.007 300.332 123.054 301.398 122.791 302.479L122.1 305.279C121.965 305.827 122.626 306.21 123.602 306.128C124.578 306.045 125.442 305.542 125.577 304.994L126.268 302.194C126.384 301.866 126.564 301.565 126.798 301.308C127.031 301.05 127.313 300.841 127.627 300.693C128.42 300.243 129.302 299.974 130.211 299.904L131.938 299.762C132.723 299.662 133.519 299.795 134.229 300.145C134.477 300.253 134.68 300.446 134.801 300.689C134.921 300.932 134.953 301.209 134.89 301.473L133.29 307.944C133.027 309.01 131.187 310.069 129.347 310.196C128.393 310.279 127.515 310.782 127.372 311.337C127.229 311.893 127.898 312.268 128.874 312.186C130.689 312.045 132.452 311.512 134.041 310.624C135.543 309.761 136.497 308.703 136.767 307.622L136.73 307.667Z" fill="white"/>
<path d="M152.651 282.631V278.69C152.686 278.014 152.881 277.357 153.219 276.771C153.557 276.185 154.029 275.688 154.596 275.319L204.276 246.627C204.879 246.32 205.547 246.16 206.225 246.16C206.902 246.16 207.57 246.32 208.173 246.627L237.185 263.375C237.754 263.743 238.227 264.24 238.567 264.826C238.906 265.412 239.102 266.07 239.138 266.746V270.687C239.102 271.363 238.906 272.021 238.567 272.607C238.227 273.193 237.754 273.69 237.185 274.058L187.498 302.749C186.894 303.057 186.226 303.217 185.549 303.217C184.872 303.217 184.204 303.057 183.6 302.749L154.596 286.009C154.029 285.639 153.557 285.14 153.219 284.553C152.881 283.966 152.686 283.307 152.651 282.631Z" fill="#E0E0E0"/>
<path d="M239.13 266.739V270.68C239.095 271.355 238.9 272.013 238.562 272.598C238.224 273.184 237.752 273.682 237.185 274.05L187.498 302.742C186.901 303.063 186.231 303.224 185.553 303.207V294.77C186.23 294.782 186.9 294.622 187.498 294.304L237.185 265.627C238.124 265.087 238.244 264.246 237.538 263.631C238.005 264.01 238.387 264.482 238.661 265.017C238.935 265.552 239.095 266.138 239.13 266.739Z" fill="#F0F0F0"/>
<path d="M163.638 291.219L156.128 292.675V301.136C156.131 301.284 156.168 301.43 156.236 301.562C156.303 301.694 156.4 301.81 156.518 301.899C156.637 301.989 156.774 302.05 156.92 302.079C157.066 302.108 157.216 302.104 157.36 302.066L174.633 297.562V289.102L163.638 291.219Z" fill="#F0F0F0"/>
<path d="M185.553 294.417C184.936 294.433 184.326 294.291 183.781 294.004L174.633 288.749L157.225 293.321H157.052C156.934 293.318 156.819 293.282 156.72 293.218C156.621 293.154 156.542 293.063 156.492 292.957C156.441 292.85 156.421 292.732 156.434 292.614C156.447 292.497 156.492 292.386 156.564 292.292L164.141 282.668L154.776 277.263C154.594 277.217 154.432 277.111 154.316 276.962C154.2 276.813 154.137 276.63 154.137 276.441C154.137 276.253 154.2 276.07 154.316 275.921C154.432 275.772 154.594 275.666 154.776 275.619L204.463 246.928C205.013 246.651 205.62 246.507 206.236 246.507C206.851 246.507 207.458 246.651 208.008 246.928L237.012 263.668C237.195 263.715 237.357 263.821 237.473 263.97C237.589 264.119 237.652 264.302 237.652 264.49C237.652 264.679 237.589 264.862 237.473 265.011C237.357 265.16 237.195 265.266 237.012 265.312L187.325 294.004C186.78 294.291 186.169 294.433 185.553 294.417Z" fill="#FAFAFA"/>
<path d="M206.236 246.86C206.791 246.849 207.341 246.976 207.836 247.228L236.84 263.968C237.118 264.134 237.298 264.329 237.298 264.486C237.298 264.644 237.118 264.847 236.84 265.012L187.153 293.696C186.655 293.943 186.108 294.071 185.553 294.071C184.998 294.071 184.45 293.943 183.953 293.696L174.941 288.494L174.693 288.351L174.415 288.426L157.142 292.93H157.059C157.007 292.929 156.955 292.913 156.911 292.884C156.868 292.855 156.833 292.813 156.812 292.765C156.788 292.718 156.779 292.665 156.785 292.613C156.792 292.561 156.814 292.512 156.849 292.472L164.172 283.164L164.675 282.533L163.976 282.128L154.964 276.925C154.679 276.76 154.506 276.558 154.506 276.4C154.506 276.242 154.679 276.047 154.964 275.882L204.651 247.19C205.145 246.936 205.695 246.81 206.251 246.822M206.251 246.124C205.571 246.109 204.898 246.269 204.298 246.59L154.611 275.281C153.537 275.897 153.537 276.903 154.611 277.534L163.623 282.736L156.301 292.045C156.188 292.188 156.117 292.36 156.096 292.542C156.076 292.723 156.106 292.907 156.184 293.072C156.262 293.238 156.385 293.378 156.538 293.477C156.691 293.577 156.869 293.632 157.052 293.636C157.139 293.647 157.227 293.647 157.315 293.636L174.588 289.132L183.6 294.334C184.202 294.651 184.873 294.811 185.553 294.8C186.23 294.812 186.9 294.652 187.498 294.334L237.185 265.627C238.267 265.004 238.267 263.998 237.185 263.375L208.181 246.635C207.584 246.314 206.914 246.153 206.236 246.169L206.251 246.124Z" fill="#E0E0E0"/>
<path d="M186.649 282.939C186.359 282.922 186.077 282.832 185.831 282.676L172.733 275.109C172.282 274.854 172.463 274.493 173.274 274.028L174.107 273.547C174.908 273.082 175.532 272.977 175.977 273.232L187.198 279.711L190.299 277.924C190.526 277.792 190.792 277.744 191.05 277.789C191.384 277.854 191.702 277.982 191.989 278.164L192.635 278.532C192.893 278.654 193.116 278.84 193.281 279.072C193.348 279.223 193.281 279.365 193.048 279.493L187.468 282.713C187.221 282.863 186.938 282.941 186.649 282.939Z" fill="#FFB703"/>
<path d="M182.496 270.882L181.25 270.132C180.806 269.876 181.047 269.479 182.001 268.946C182.954 268.413 183.675 268.195 184.126 268.488L185.373 269.238C185.816 269.494 185.575 269.891 184.622 270.432C183.668 270.972 182.962 271.145 182.496 270.882ZM194.422 277.939L184.809 272.384C184.369 272.129 184.564 271.761 185.395 271.28L185.973 270.942C186.81 270.442 187.448 270.329 187.889 270.605L197.517 276.137C197.962 276.393 197.767 276.76 196.931 277.241L196.352 277.579C195.534 278.089 194.895 278.202 194.445 277.946L194.422 277.939Z" fill="#FFB703"/>
<path d="M199.672 274.929L193.033 271.1C192.321 270.671 191.583 270.285 190.825 269.944C190.337 269.741 190.074 269.614 189.954 269.561C189.698 269.411 189.811 269.141 190.277 268.735C190.69 268.368 191.138 268.041 191.614 267.759C191.835 267.614 192.102 267.552 192.365 267.587C192.623 267.639 192.875 267.72 193.116 267.827C193.393 267.947 193.611 268.045 193.776 268.105C193.619 267.678 193.619 267.21 193.776 266.784C194.004 266.276 194.403 265.864 194.903 265.62C195.652 265.183 196.516 264.982 197.381 265.042C198.356 265.123 199.297 265.431 200.13 265.943L207.64 270.289C208.083 270.552 207.903 270.905 207.1 271.37L206.394 271.783C205.59 272.249 204.967 272.354 204.516 272.091L197.689 268.15C197.393 267.967 197.064 267.844 196.72 267.789C196.419 267.757 196.115 267.826 195.857 267.985C195.678 268.067 195.538 268.216 195.468 268.4C195.398 268.583 195.402 268.788 195.481 268.968L202.774 273.134C202.999 273.262 203.067 273.412 202.984 273.592C202.794 273.86 202.534 274.07 202.233 274.2L201.482 274.621C200.738 275.086 200.115 275.184 199.672 274.929Z" fill="#FFB703"/>
<path d="M218.305 264.562C218.53 264.689 218.305 264.959 217.554 265.38L216.39 266.048C216.198 266.176 215.984 266.268 215.759 266.318C215.568 266.358 215.371 266.358 215.18 266.318L208.564 264.637L208.331 264.772L212.837 267.369C213.283 267.624 213.103 267.985 212.297 268.45L211.628 268.833C210.822 269.298 210.199 269.404 209.758 269.148L195.354 260.831C194.903 260.575 195.083 260.215 195.894 259.75L196.555 259.367C197.366 258.901 197.99 258.796 198.433 259.051L207.092 264.051L207.197 263.991L204.801 260.568C204.704 260.418 204.681 260.298 204.726 260.222C204.87 260.078 205.038 259.958 205.222 259.87L206.303 259.247C207.054 258.811 207.543 258.661 207.805 258.804C207.923 258.892 208.021 259.004 208.091 259.134L210.569 262.827L217.794 264.426C217.969 264.45 218.141 264.495 218.305 264.562Z" fill="#FFB703"/>
<path d="M27.9149 332.439L34.4337 328.686C34.4337 328.686 38.3014 312.576 36.7994 298.072C34.629 277.684 21.2008 270.011 16.0939 271.798C10.987 273.585 9.51504 279.493 17.9564 291.632C22.9056 298.771 29.0264 313.672 27.9149 332.439Z" fill="#FFB703"/>
<g opacity="0.65">
<path d="M27.9149 332.439L34.4337 328.686C34.4337 328.686 38.3014 312.576 36.7994 298.072C34.629 277.684 21.2008 270.011 16.0939 271.798C10.987 273.585 9.51504 279.493 17.9564 291.632C22.9056 298.771 29.0264 313.672 27.9149 332.439Z" fill="white"/>
</g>
<path d="M30.6111 324.542H30.551C30.4328 324.518 30.3288 324.449 30.2613 324.349C30.1938 324.25 30.1684 324.127 30.1905 324.009C33.7653 305.204 27.1864 284.072 19.0529 275.281C18.9884 275.19 18.9592 275.079 18.9709 274.968C18.9825 274.858 19.0341 274.755 19.1161 274.679C19.198 274.604 19.3047 274.561 19.4161 274.558C19.5275 274.556 19.636 274.594 19.7213 274.666C27.9825 283.621 34.7041 305.099 31.0767 324.212C31.0492 324.312 30.9878 324.4 30.9029 324.46C30.818 324.52 30.7149 324.549 30.6111 324.542Z" fill="white"/>
<path d="M11.5052 341.928C10.5289 342.424 7.93792 340.209 7.21694 339.676C5.98164 338.739 5.00694 337.501 4.38562 336.08C3.69477 334.466 3.52159 332.677 3.88995 330.961C4.07977 330.054 4.33068 329.161 4.64096 328.288L5.5572 325.683C5.90597 324.854 6.08228 323.963 6.0754 323.063C5.93271 321.254 4.40815 319.918 3.01126 318.762C1.47168 317.478 -0.120471 315.812 0.00720175 313.657C0.20914 311.986 0.959145 310.428 2.14008 309.228C3.23657 307.974 4.5208 306.878 5.52716 305.549C6.31086 304.624 6.75353 303.458 6.78135 302.246C6.72176 301.501 6.5096 300.775 6.15801 300.114C5.46708 298.666 4.52831 297.329 4.0777 295.79C3.62709 294.251 3.79232 292.375 5.03149 291.354C6.04536 290.52 7.48731 290.468 8.78656 290.603C10.0048 290.817 11.1626 291.291 12.1812 291.992C15.5157 294.071 17.273 298.238 20.8328 299.882C22.2559 300.406 23.7108 300.84 25.1887 301.18C26.6307 301.646 28.0876 302.464 28.696 303.853C29.8976 306.585 27.254 309.753 28.0501 312.629C28.7485 315.181 31.1368 316.262 32.391 318.589C32.8989 319.614 33.0672 320.773 32.8716 321.9C32.6544 323.81 32.0894 325.665 31.2044 327.372C30.2131 329.127 29.1145 330.82 27.9149 332.44C27.9149 332.44 11.6554 341.853 11.5052 341.928Z" fill="#FFB703"/>
<g opacity="0.3">
<path d="M11.5052 341.928C10.5289 342.424 7.93792 340.209 7.21694 339.676C5.98164 338.739 5.00694 337.501 4.38562 336.08C3.69477 334.466 3.52159 332.677 3.88995 330.961C4.07977 330.054 4.33068 329.161 4.64096 328.288L5.5572 325.683C5.90597 324.854 6.08228 323.963 6.0754 323.063C5.93271 321.254 4.40815 319.918 3.01126 318.762C1.47168 317.478 -0.120471 315.812 0.00720175 313.657C0.20914 311.986 0.959145 310.428 2.14008 309.228C3.23657 307.974 4.5208 306.878 5.52716 305.549C6.31086 304.624 6.75353 303.458 6.78135 302.246C6.72176 301.501 6.5096 300.775 6.15801 300.114C5.46708 298.666 4.52831 297.329 4.0777 295.79C3.62709 294.251 3.79232 292.375 5.03149 291.354C6.04536 290.52 7.48731 290.468 8.78656 290.603C10.0048 290.817 11.1626 291.291 12.1812 291.992C15.5157 294.071 17.273 298.238 20.8328 299.882C22.2559 300.406 23.7108 300.84 25.1887 301.18C26.6307 301.646 28.0876 302.464 28.696 303.853C29.8976 306.585 27.254 309.753 28.0501 312.629C28.7485 315.181 31.1368 316.262 32.391 318.589C32.8989 319.614 33.0672 320.773 32.8716 321.9C32.6544 323.81 32.0894 325.665 31.2044 327.372C30.2131 329.127 29.1145 330.82 27.9149 332.44C27.9149 332.44 11.6554 341.853 11.5052 341.928Z" fill="white"/>
</g>
<path d="M20.938 337.011C20.8245 337 20.7197 336.945 20.6456 336.858C20.5714 336.772 20.5336 336.66 20.54 336.546C22.1021 319.633 15.0576 300.512 9.52261 294.784C9.48039 294.745 9.44669 294.697 9.42354 294.644C9.40039 294.591 9.38828 294.533 9.38795 294.475C9.38761 294.417 9.39905 294.36 9.42158 294.307C9.44411 294.253 9.47726 294.205 9.51901 294.165C9.56076 294.124 9.61025 294.093 9.66447 294.073C9.7187 294.052 9.77652 294.043 9.83445 294.045C9.89237 294.048 9.94918 294.062 10.0014 294.087C10.0537 294.112 10.1003 294.148 10.1384 294.191C15.7861 300.032 22.9808 319.467 21.4037 336.621C21.3989 336.677 21.3831 336.732 21.3571 336.782C21.3311 336.832 21.2955 336.877 21.2522 336.913C21.2089 336.949 21.1588 336.977 21.1049 336.993C21.051 337.01 20.9943 337.016 20.938 337.011Z" fill="white"/>
<path d="M19.2557 316.157H19.1356C15.1753 314.846 11.0827 313.975 6.93159 313.559C6.87529 313.555 6.82049 313.539 6.77034 313.513C6.72018 313.487 6.67567 313.451 6.63936 313.408C6.60306 313.365 6.57569 313.315 6.55881 313.261C6.54194 313.207 6.53591 313.15 6.54106 313.094C6.5437 313.037 6.55815 312.981 6.58348 312.93C6.60881 312.879 6.64449 312.833 6.68824 312.797C6.732 312.76 6.78289 312.733 6.8377 312.717C6.89251 312.701 6.95005 312.696 7.00669 312.704C11.2313 313.133 15.3966 314.022 19.4285 315.354C19.5337 315.394 19.6192 315.474 19.6668 315.576C19.7144 315.678 19.7205 315.795 19.6838 315.902C19.6472 315.983 19.5865 316.051 19.5099 316.096C19.4334 316.142 19.3446 316.163 19.2557 316.157Z" fill="white"/>
<path d="M252.671 296.819C252.739 300.527 253.032 305.925 252.671 307.464C252.311 309.003 246.122 310.466 241.286 310.722C236.449 310.977 230.629 310.196 230.283 313.589C229.938 316.982 232.957 319.295 235.18 320.346C238.935 322.087 243.163 321.712 246.866 321.164C250.568 320.616 252.536 321.021 256.449 321.975C260.362 322.928 262.562 322.342 264.229 321.502C266.708 320.263 266.047 316.037 265.176 313.282C264.304 310.526 264.425 308.027 264.725 304.191C265.025 300.354 266.137 294.799 266.137 294.799L252.671 296.819Z" fill="#FFBDA7"/>
<path d="M265.176 313.259C265.176 313.259 265.176 314.43 262.637 314.963C260.099 315.496 255.878 315.354 252.949 315.549C248.533 315.834 245.176 316.337 240.114 315.549C235.668 314.851 235.856 311.33 239.836 310.767C235.33 310.842 230.599 310.534 230.284 313.589C229.931 317.02 232.957 319.295 235.18 320.346C238.935 322.087 243.163 321.712 246.866 321.164C250.568 320.616 252.536 321.021 256.449 321.975C260.362 322.928 262.562 322.343 264.229 321.502C266.708 320.241 266.047 316.014 265.176 313.259Z" fill="#455A64"/>
<path d="M298.611 287.615C300.684 290.618 304.116 296.308 304.619 297.727C305.122 299.146 305.52 304.439 304.619 305.985C303.32 306.931 301.284 307.486 299.542 308.335C297.034 309.573 296.493 311.63 298.138 313.199C300.391 315.399 304.146 315.654 306.346 315.526C309.591 315.031 309.816 311.398 310.282 308.185C310.747 304.972 310.169 298.658 312.632 294.777C315.096 290.896 319.391 290.528 319.955 291.819C319.692 289.867 318.61 289.807 316.275 288.486C313.939 287.165 311.896 287.202 310.605 284.132C309.103 280.506 307.676 276.167 307.676 276.167L298.611 287.615Z" fill="#FFBDA7"/>
<path d="M303.177 315.609C305.505 315.999 307.142 315.992 311.281 313.965C314.848 312.216 315.787 311.48 316.297 310.504C317.161 309.003 316.23 305.182 316.981 301.909C317.534 299.609 318.324 297.372 319.339 295.235C320.142 293.253 320.09 292.397 319.955 291.819C319.677 290.581 317.153 290.423 314.75 291.819C312.347 293.216 310.792 295.873 310.004 302.201C309.215 308.53 310.432 315.451 303.177 315.609Z" fill="#292D32"/>
<path d="M319.932 291.819C319.669 289.867 318.993 289.567 316.65 288.253C315.787 287.765 314.93 287.413 314.134 287C311.881 286.572 308.299 288.351 308.126 293.103C307.953 297.855 308.757 303.875 307.33 306.113C306.113 308.012 304.108 307.884 304.574 306C301.36 307.179 300.256 307.194 298.446 308.184C296.358 309.326 295.652 312.313 297.582 313.514C300.134 315.252 303.244 315.975 306.301 315.541C309.546 315.046 309.771 311.412 310.237 308.199C310.702 304.987 310.169 298.658 312.632 294.777C315.096 290.896 319.391 290.528 319.932 291.819Z" fill="#455A64"/>
<path d="M299.227 289.5C299.227 289.5 287.443 272.196 281.142 260.973C276.486 252.715 276.065 251.079 274.924 245.659C272.468 234.008 271.92 231.275 271.92 231.275L268.262 254.81C268.848 257.362 270.027 262.422 270.072 265.395C270.04 271.205 269.568 277.004 268.66 282.743C267.812 289.211 266.616 295.629 265.078 301.969C264.162 302.607 261.503 302.719 259.19 302.652C256.944 302.518 254.724 302.104 252.581 301.421C252.581 301.421 250.658 273.69 250.208 266.055C249.675 256.904 249.457 253.293 249.202 248.279C248.743 240.276 247.654 228.678 247.962 213.972C248.586 184.695 255.104 171.355 255.104 171.355L288.149 166.768C290.89 176.624 296.591 177.773 297.161 191.226C297.304 194.281 295.659 200.347 295.659 205.083C295.487 220.458 294.112 244.608 294.112 244.608C297.74 247.956 300.398 250.974 302.899 258.736C304.401 263.443 307.803 275.364 309.223 280.206C305.024 280.213 299.174 287.615 299.227 289.5Z" fill="#455A64"/>
<path d="M265.859 188.23L266.73 188.095C267.481 193.395 268.765 199.408 269.464 199.889C270.681 200.714 275.172 201.39 276.186 201.135C277.199 200.88 278.086 200.061 279.881 197.622C281.142 195.91 281.007 194.844 280.707 192.509C280.601 191.639 280.474 190.648 280.391 189.401L281.277 189.341C281.353 190.558 281.48 191.533 281.585 192.397C281.886 194.746 282.066 196.15 280.586 198.17C278.649 200.805 277.665 201.705 276.388 202.013C276.203 202.054 276.015 202.079 275.825 202.088C274.045 202.163 270.177 201.458 268.976 200.639C267.586 199.724 266.212 190.91 265.859 188.23Z" fill="#37474F"/>
<path d="M252.296 187.45L253.144 187.697C250.644 196.706 251.192 204.911 255.668 207.411C256.486 201.345 257.635 195.077 259.22 188.366L260.076 188.576C254.984 210.181 254.369 227.199 255.022 247.656C255.525 263.24 256.524 290.025 256.975 302.457L256.081 302.307C255.615 289.8 254.639 263.195 254.143 247.686C253.693 233.843 253.843 221.554 255.548 208.364C250.418 205.759 249.607 197.089 252.296 187.45Z" fill="#37474F"/>
<path d="M296.786 195.512C296.235 196.038 295.569 196.429 294.841 196.653C293.444 196.721 291.138 194.731 290.477 193.238C290.161 192.375 289.964 191.473 289.892 190.558C289.756 189.2 289.505 187.856 289.141 186.541L289.989 186.286C290.352 187.65 290.603 189.041 290.74 190.445C290.795 191.284 290.959 192.111 291.228 192.907C291.784 194.168 293.804 195.828 294.736 195.79C295.578 195.359 296.326 194.764 296.936 194.041C296.936 194.446 296.853 195.062 296.786 195.512Z" fill="#37474F"/>
<path d="M301.998 284.845C302.208 284.605 302.411 284.372 302.629 284.147C296.989 274.313 284.875 252.798 283.793 247.581C282.404 240.892 280.038 218.483 279.926 206.427H279.039C279.137 218.529 281.533 241.042 282.93 247.761C284.056 253.233 296.395 275.086 301.998 284.845Z" fill="#37474F"/>
<path d="M284.717 184.717C286.97 188.283 288.322 194.536 285.423 201.39L284.634 201.067C287.391 194.529 286.136 188.606 283.996 185.235L284.717 184.717Z" fill="#37474F"/>
<path d="M271.867 231.283L275.457 206.607C275.457 206.607 284.747 205.309 286.031 196.601C286.257 201.765 284.191 206.21 278.424 208.612L273.812 231.388L274.894 245.651L271.867 231.283Z" fill="#37474F"/>
<path d="M210.982 119.496V94.0401C211.026 93.8036 210.997 93.5595 210.899 93.3398C210.801 93.1202 210.639 92.9351 210.434 92.809C210.224 92.69 209.981 92.6392 209.741 92.6633C209.5 92.6875 209.273 92.7856 209.09 92.9441L197.96 99.3701C197.737 99.5243 197.554 99.7279 197.424 99.965C197.293 100.202 197.22 100.466 197.209 100.736V126.193C197.162 126.429 197.191 126.674 197.291 126.893C197.39 127.112 197.556 127.295 197.764 127.415C197.972 127.536 198.213 127.589 198.453 127.566C198.693 127.543 198.919 127.446 199.101 127.289L210.239 120.863C210.476 120.724 210.67 120.524 210.801 120.283C210.932 120.042 210.995 119.77 210.982 119.496Z" fill="#37474F"/>
<path d="M210.284 119.752L198.838 126.358V100.789L197.404 99.9634C197.266 100.19 197.188 100.449 197.179 100.714V126.17C197.141 126.407 197.174 126.65 197.273 126.869C197.371 127.088 197.532 127.273 197.734 127.401C197.946 127.514 198.185 127.561 198.423 127.537C198.661 127.512 198.887 127.418 199.071 127.266L210.209 120.84C210.514 120.676 210.753 120.41 210.885 120.09H210.84L210.284 119.752Z" fill="#292D32"/>
<path d="M210.179 93.8074L199.019 100.248C198.858 100.355 198.725 100.497 198.629 100.664C198.532 100.831 198.476 101.017 198.463 101.209V126.448C198.463 126.988 198.846 127.198 199.319 126.936L210.186 120.667C210.368 120.547 210.519 120.386 210.627 120.197C210.735 120.008 210.798 119.796 210.81 119.579V94.1678C210.802 93.7699 210.524 93.6122 210.179 93.8074Z" fill="#455A64"/>
<path d="M210.284 95.444V118.941C210.273 119.148 210.212 119.349 210.108 119.528C210.003 119.706 209.858 119.858 209.683 119.969L199.62 125.78C199.289 125.975 199.026 125.78 199.026 125.442V101.757C199.045 101.416 199.196 101.096 199.447 100.864L199.499 100.811L199.62 100.729L202.451 99.0999L202.639 98.9873C202.736 98.9347 202.819 98.9873 202.819 99.0999C202.819 99.2125 202.909 99.2575 203.022 99.1975L206.319 97.2907C206.374 97.2554 206.42 97.2079 206.454 97.152C206.488 97.096 206.508 97.0331 206.514 96.9679C206.517 96.9077 206.534 96.8489 206.562 96.7957C206.591 96.7425 206.631 96.6962 206.679 96.6601L209.45 95.0611H209.503C209.923 94.7759 210.284 94.9711 210.284 95.444Z" fill="#292D32"/>
<path d="M209.45 95.0461V118.385C209.438 118.592 209.378 118.793 209.273 118.972C209.169 119.15 209.024 119.302 208.849 119.414L199.019 125.097V101.757C199.037 101.416 199.188 101.096 199.439 100.864L199.492 100.812L199.612 100.729L202.443 99.0999L202.631 98.9873C202.729 98.9348 202.811 98.9873 202.811 99.0999C202.811 99.2125 202.901 99.2576 203.014 99.1975L206.311 97.2907C206.366 97.2554 206.412 97.208 206.446 97.152C206.48 97.096 206.501 97.0331 206.506 96.9679C206.51 96.9077 206.526 96.8489 206.555 96.7957C206.583 96.7425 206.623 96.6963 206.672 96.6601L209.45 95.0461Z" fill="white"/>
<path d="M203.525 98.2219L205.027 97.3507C205.117 97.2981 205.185 97.3507 205.185 97.4333C205.181 97.4876 205.165 97.5404 205.138 97.5874C205.111 97.6343 205.073 97.6742 205.027 97.7036L203.525 98.5748C203.435 98.6274 203.367 98.5748 203.367 98.4922C203.37 98.4379 203.386 98.3851 203.414 98.3381C203.441 98.2912 203.479 98.2513 203.525 98.2219Z" fill="#292D32"/>
<path d="M205.778 96.7953C205.883 96.7427 205.966 96.7953 205.966 96.9004C205.962 96.9654 205.944 97.0286 205.911 97.0848C205.878 97.141 205.833 97.1885 205.778 97.2234C205.68 97.2834 205.598 97.2234 205.598 97.1182C205.601 97.0542 205.619 96.9918 205.65 96.9359C205.682 96.8799 205.725 96.8318 205.778 96.7953Z" fill="#292D32"/>
<path d="M198.2 103.972C198.198 103.868 198.171 103.766 198.121 103.675C198.071 103.583 198.001 103.505 197.915 103.446C197.884 103.429 197.849 103.419 197.813 103.419C197.778 103.419 197.743 103.429 197.712 103.446L197.494 103.574C197.463 103.597 197.438 103.628 197.422 103.663C197.407 103.699 197.4 103.738 197.404 103.777V105.976C197.407 106.081 197.435 106.183 197.486 106.275C197.537 106.366 197.61 106.444 197.697 106.502C197.726 106.517 197.758 106.526 197.791 106.526C197.824 106.526 197.856 106.517 197.885 106.502L198.11 106.374C198.142 106.35 198.168 106.318 198.184 106.281C198.2 106.244 198.205 106.204 198.2 106.164V103.972Z" fill="#455A64"/>
<path d="M197.982 104.092V106.291C197.982 106.487 197.855 106.569 197.697 106.479C197.61 106.421 197.537 106.344 197.486 106.252C197.435 106.161 197.407 106.058 197.404 105.954V103.754C197.404 103.559 197.532 103.476 197.697 103.566C197.782 103.626 197.852 103.704 197.902 103.795C197.951 103.887 197.979 103.988 197.982 104.092Z" fill="#37474F"/>
<path d="M198.2 107.816C198.197 107.711 198.169 107.608 198.12 107.516C198.07 107.423 198 107.344 197.915 107.283C197.883 107.266 197.849 107.258 197.813 107.258C197.778 107.258 197.743 107.266 197.712 107.283L197.494 107.41C197.463 107.433 197.438 107.464 197.422 107.5C197.407 107.535 197.4 107.574 197.404 107.613V109.812C197.407 109.917 197.435 110.019 197.486 110.111C197.537 110.202 197.61 110.28 197.697 110.338C197.726 110.354 197.758 110.362 197.791 110.362C197.824 110.362 197.856 110.354 197.885 110.338L198.11 110.21C198.142 110.187 198.168 110.154 198.184 110.117C198.2 110.081 198.205 110.04 198.2 110V107.816Z" fill="#455A64"/>
<path d="M197.982 107.936V110.135C197.982 110.33 197.855 110.413 197.697 110.323C197.61 110.265 197.537 110.187 197.486 110.096C197.435 110.004 197.407 109.902 197.404 109.797V107.598C197.404 107.403 197.532 107.32 197.697 107.41C197.782 107.47 197.852 107.548 197.902 107.639C197.951 107.73 197.979 107.832 197.982 107.936Z" fill="#37474F"/>
<path d="M290.92 126.913C296.928 128.34 300.188 130.006 302.666 138.174C305.009 145.906 308.93 158.961 309.959 164.501C310.462 167.196 310.71 169.756 306.954 171.355C298.468 174.943 290.289 177.458 290.289 177.458L286.977 167.444L296.05 162.939L293.797 155.643L290.92 126.913Z" fill="#FFBDA7"/>
<path d="M296.035 162.924C296.802 164.662 298.122 166.098 299.79 167.008C297.582 167.278 295.426 164.966 294.863 163.517L296.035 162.924Z" fill="#F0997A"/>
<path d="M261.713 96.998C260.662 95.5942 260.812 93.4923 261.563 91.9158C262.314 90.3394 263.771 88.7103 267.797 86.9762C272.588 84.9118 285.648 83.5455 290.657 92.2837C291.408 93.5899 277.748 116.696 278.018 121.606C275.014 117.973 265.183 105.241 265.183 105.241C262.727 103.987 261.263 102.989 260.895 100.534C260.788 99.2984 261.074 98.0608 261.713 96.998Z" fill="#292D32"/>
<path d="M263.14 103.769C263.14 103.769 259.325 109.114 259.671 109.595C260.42 110.283 261.229 110.904 262.089 111.449L263.14 103.769Z" fill="#F0997A"/>
<path d="M268.112 93.89C265.739 94.8133 263.606 96.4273 262.555 101.397C262.269 102.696 263.17 104.572 262.555 106.291C260.024 113.641 261.946 120.059 263.306 121.538C264.229 122.537 269.314 123.317 272.1 122.762C275.547 122.056 283.125 119.264 287 114.234C291.566 108.311 293.121 100.023 288.772 96.3447C282.689 91.1799 270.65 92.9065 268.112 93.89Z" fill="#FFBDA7"/>
<path d="M284.529 118.325L284.965 125.795C289.11 128.22 280.526 131.38 271.447 127.484L270.786 120.728L284.529 118.325Z" fill="#FFBDA7"/>
<path d="M271.071 123.82C271.236 125.547 271.409 128.129 268.728 128.842C266.212 129.518 262.142 129.931 258.169 131.417C258.169 131.417 272.475 133.669 279.948 132.438C287.421 131.207 288.757 126.373 288.757 126.373C286.054 126.012 284.927 125.562 284.822 123.82H271.071Z" fill="#FFBDA7"/>
<path d="M263.606 121.764C264.755 122.515 267.361 123.191 270.988 122.943L270.823 121.073C269.685 121.431 268.516 121.683 267.331 121.824C266.093 121.988 264.838 121.968 263.606 121.764Z" fill="#F0997A"/>
<path d="M264.53 96.3374C264.177 99.5879 266.152 100.766 267.534 101.51C266.888 102.67 266.583 103.99 266.655 105.316C266.865 106.99 267.406 108.394 268.991 109.069C269.96 109.475 270.29 109.069 270.696 108.319C271.281 107.238 272.04 105.571 274.413 106.066C277.139 106.644 277.575 110.833 275.772 113.431C275.423 113.981 274.945 114.438 274.38 114.764C273.815 115.089 273.18 115.273 272.528 115.3C272.172 115.269 271.826 115.163 271.514 114.988C271.202 114.814 270.93 114.574 270.718 114.287C270.718 114.287 270.643 117.912 275.142 120.382C275.142 120.382 279.648 123.385 284.559 122.282C286.904 120.036 289.125 117.665 291.213 115.18C296.816 108.213 297.972 94.9711 289.508 91.9533C289.103 91.8107 282.141 90.0465 278.243 90.6095C266.4 92.2761 264.59 95.7744 264.53 96.3374Z" fill="#292D32"/>
<path d="M290.643 92.2837C291.979 92.2837 296.02 94.3481 296.012 103.326C296.012 109.385 294.51 117.5 292.573 121.298C287.376 127.026 272.295 128.122 265.671 125.72C269.982 123.745 270.756 118.393 270.733 114.249C272.701 117.252 276.306 117.935 280.662 115.751C285.017 113.566 290.643 92.2837 290.643 92.2837Z" fill="#292D32"/>
<path d="M296.748 134.345C295.501 128.28 292.242 126.966 290.74 126.703C288.404 126.29 286.985 126.05 286.985 126.05C287.03 126.801 287.503 128.475 280.797 129.316C276.478 129.856 269.043 128.753 269.043 128.753L262.397 129.653C259.941 131.155 253.918 136.965 251.079 143.669C248.826 148.969 249.675 154.366 253.677 158.308C253.985 161.633 253.445 168.224 253.445 168.224C251.139 180.235 249.855 185.303 249.855 185.303C249.855 185.303 253.002 190.22 273.377 189.762C289.148 189.409 296.433 182.36 296.433 182.36C295.975 180.003 294.33 174.958 291.348 167.113C291.724 159.441 299.444 147.452 296.748 134.345Z" fill="#219EBC"/>
<path d="M228.519 138.099C228.519 138.099 213.288 128.753 212.372 127.499C211.568 126.425 211.621 125.089 211.44 123.828C211.213 122.384 210.778 120.981 210.149 119.662C209.751 118.791 209.202 117.972 208.857 117.087C208.511 116.201 208.572 115.368 208.271 114.542C207.971 113.716 207.13 113.979 206.604 114.542C205.963 115.364 205.667 116.403 205.778 117.439C205.778 117.897 205.823 118.355 205.853 118.813C205.927 119.234 205.958 119.662 205.943 120.089C205.931 120.313 205.846 120.526 205.703 120.698C205.357 121.005 204.711 120.525 204.426 120.292C202.542 118.743 200.989 116.831 199.86 114.669C199.379 113.739 199.109 112.77 198.53 111.869C198.042 111.029 197.426 110.269 196.706 109.617C196.232 109.162 195.638 108.852 194.993 108.724C193.957 108.784 194.528 110.578 194.61 111.149C194.749 111.789 194.705 112.454 194.483 113.07C194.184 113.791 194.184 114.602 194.483 115.323C194.708 116.073 195.151 116.974 195.008 117.77C194.939 118.053 194.851 118.331 194.745 118.603C194.564 119.473 194.658 120.379 195.016 121.193C195.372 121.946 195.441 122.802 195.211 123.603C194.835 125.472 196.307 127.356 197.464 128.707C198.807 130.189 200.319 131.506 201.97 132.634C202.841 133.257 203.667 133.94 204.554 134.54C205.44 135.141 206.198 135.531 206.957 136.124C208.744 137.543 215.564 144.164 223.479 150.575C226.1 152.692 226.904 153.428 231.981 152.512C241.113 150.868 243.171 150.41 248.631 149.397C256.959 147.85 257.988 147.595 257.988 147.595C263.178 145.343 263.906 139.12 264.042 136.012C264.177 133.776 263.607 131.555 262.412 129.661C257.658 129.879 253.557 130.99 245.95 133.212C236.96 135.832 228.519 138.099 228.519 138.099Z" fill="#FFBDA7"/>
<path d="M275.697 80.0022L272.813 74.5822L275.134 67.8859V63.7871L268.029 67.8859V71.9847L271.086 77.2396C271.134 77.3188 271.205 77.3816 271.289 77.4198L275.697 80.0022Z" fill="#219EBC"/>
<path opacity="0.2" d="M275.697 80.0022L272.813 74.5822L275.134 67.8859V63.7871L268.029 67.8859V71.9847L271.086 77.2396C271.134 77.3188 271.205 77.3816 271.289 77.4198L275.697 80.0022Z" fill="#292D32"/>
<path d="M290.95 27.9561C290.911 27.2171 290.697 26.498 290.326 25.8574C289.956 25.2168 289.439 24.6729 288.817 24.2702L287.083 23.2643C286.422 22.931 285.693 22.7574 284.954 22.7574C284.214 22.7574 283.485 22.931 282.824 23.2643L258.349 37.46C257.723 37.8641 257.202 38.411 256.828 39.0557C256.455 39.7004 256.24 40.4245 256.201 41.1684V74.6346C256.24 75.3735 256.454 76.0927 256.825 76.7333C257.196 77.3739 257.713 77.9178 258.334 78.3205L260.069 79.3189C260.728 79.6556 261.458 79.8312 262.198 79.8312C262.938 79.8312 263.668 79.6556 264.327 79.3189L272.49 74.5895L275.54 79.8444C275.582 79.92 275.646 79.9817 275.723 80.022C275.8 80.0623 275.887 80.0795 275.973 80.0716C276.06 80.0636 276.142 80.0309 276.21 79.9773C276.279 79.9236 276.33 79.8514 276.358 79.7693L279.58 70.4457L288.817 65.0857C289.437 64.6816 289.953 64.1374 290.324 63.4971C290.694 62.8568 290.909 62.1383 290.95 61.3997V27.9561Z" fill="#219EBC"/>
<path opacity="0.2" d="M256.201 74.6121C256.24 75.3511 256.454 76.0703 256.825 76.7109C257.196 77.3515 257.713 77.8953 258.334 78.298L260.069 79.2965C260.668 79.599 261.325 79.7709 261.995 79.8007C262.666 79.8304 263.335 79.7174 263.959 79.4691C262.96 79.852 262.194 79.2814 262.194 78.0728V44.6067C262.22 43.8669 262.435 43.1461 262.817 42.5122L256.809 39.0515C256.428 39.6857 256.213 40.4064 256.186 41.146L256.201 74.6121Z" fill="#292D32"/>
<path opacity="0.3" d="M290.883 27.3481C290.627 26.4472 289.809 26.1545 288.825 26.725L264.357 40.9207C263.725 41.3097 263.207 41.8587 262.855 42.5122L256.847 39.059C257.203 38.4087 257.72 37.8608 258.349 37.4675L282.839 23.2643C283.501 22.9345 284.23 22.7628 284.969 22.7628C285.708 22.7628 286.436 22.9345 287.098 23.2643L288.84 24.2702C289.37 24.62 289.823 25.0728 290.174 25.6016C290.525 26.1303 290.766 26.7243 290.883 27.3481Z" fill="white"/>
<path d="M283.012 38.3083C281.059 37.1823 278.574 37.3699 276.02 38.8413C270.365 42.1218 265.709 50.9275 265.709 58.4946C265.709 62.5484 267.053 65.6487 269.396 67C270.24 67.4905 271.199 67.7494 272.175 67.7507C273.662 67.6941 275.109 67.2517 276.373 66.467C282.058 63.1864 286.677 54.3657 286.677 46.8137C286.692 42.7599 285.385 39.6671 283.012 38.3083ZM266.49 57.8265C266.702 53.9064 267.831 50.0908 269.787 46.6861C270.244 46.9034 270.729 47.055 271.229 47.1365C270.116 50.0135 269.508 53.0612 269.434 56.1449L266.49 57.8265ZM276.591 52.8493L282.246 49.5838C282.114 52.4917 281.502 55.3578 280.436 58.0667C279.094 58.0559 277.77 58.3865 276.591 59.0276V52.8493ZM276.591 51.9935V45.8603C278.128 44.9003 279.5 43.6988 280.654 42.302C281.764 44.2637 282.319 46.4901 282.261 48.743L276.591 51.9935ZM276.591 44.967V39.5695C277.306 39.6617 277.995 39.8958 278.618 40.2581C279.241 40.6204 279.785 41.1034 280.218 41.6789C279.174 42.9532 277.946 44.0662 276.576 44.982L276.591 44.967ZM275.84 45.4174C274.758 46.0544 273.535 46.4154 272.28 46.4684C273.198 44.2377 274.394 42.1316 275.84 40.2001V45.4174ZM271.987 47.2116H272.183C273.462 47.1735 274.714 46.8367 275.84 46.2282V52.4289L270.177 55.702C270.308 52.7971 270.917 49.9335 271.98 47.2266L271.987 47.2116ZM275.84 53.2772V59.4254C274.301 60.3883 272.926 61.5923 271.769 62.9913C270.656 61.0309 270.101 58.8036 270.162 56.5503L275.84 53.2772ZM275.84 60.3038V65.7238C275.124 65.6325 274.433 65.3988 273.809 65.0365C273.185 64.6743 272.639 64.1907 272.205 63.6143C273.247 62.3448 274.469 61.2345 275.832 60.3188L275.84 60.3038ZM276.591 59.8533C277.672 59.2197 278.891 58.859 280.143 58.8024C279.226 61.0322 278.033 63.1381 276.591 65.0707V59.8533ZM282.997 49.1484L285.949 47.4518C285.729 51.3716 284.597 55.1861 282.644 58.5922C282.187 58.3749 281.702 58.2232 281.202 58.1418C282.303 55.2723 282.905 52.2357 282.982 49.1634L282.997 49.1484ZM285.964 46.5885L282.96 48.3076C282.965 45.9714 282.328 43.6785 281.12 41.6789C281.763 40.8646 282.352 40.0095 282.884 39.1191C284.8 40.4178 285.904 43.0902 285.949 46.6035L285.964 46.5885ZM282.276 38.7437C281.793 39.547 281.264 40.3215 280.691 41.0634C279.853 40.0252 278.702 39.2854 277.41 38.9539C278.299 38.547 279.263 38.3272 280.241 38.3083C280.939 38.3114 281.628 38.4651 282.261 38.7587L282.276 38.7437ZM274.488 40.8231C273.29 42.5774 272.283 44.4549 271.484 46.4233C271.013 46.3669 270.554 46.2351 270.125 46.033C271.284 44.0783 272.753 42.3241 274.473 40.8382L274.488 40.8231ZM266.475 58.6898L269.441 56.9707C269.431 59.3076 270.067 61.6019 271.281 63.5993C270.638 64.4136 270.049 65.2687 269.516 66.1592C267.601 64.898 266.505 62.188 266.46 58.7048L266.475 58.6898ZM270.162 66.5271C270.643 65.7264 271.169 64.9543 271.739 64.2149C272.57 65.2528 273.717 65.991 275.006 66.3169C274.26 66.702 273.44 66.9216 272.601 66.9604C271.763 66.9993 270.926 66.8566 270.147 66.5421L270.162 66.5271ZM277.92 64.4401C279.123 62.6857 280.13 60.8053 280.924 58.8324C281.395 58.8923 281.853 59.024 282.284 59.2228C281.127 61.1906 279.653 62.9536 277.92 64.4401Z" fill="white"/>
</svg>
