<svg width="41" height="41" viewBox="0 0 41 41" fill="none" xmlns="http://www.w3.org/2000/svg">
<path d="M8.78431 21.3332C7.39819 21.3332 6.27451 22.4569 6.27451 23.843L6.27451 31.3725C6.27451 32.7586 7.39819 33.8823 8.78431 33.8823H16.3137C17.6998 33.8823 18.8235 32.7586 18.8235 31.3725V22.5716C18.8235 22.167 18.8888 21.765 19.0167 21.3811L19.1372 21.0195L18.7756 21.14C18.3918 21.268 17.9898 21.3332 17.5851 21.3332H8.78431Z" fill="#FFB703"/>
<path d="M31.3725 18.8234C32.7587 18.8234 33.8823 17.6998 33.8823 16.3136V8.78422C33.8823 7.39809 32.7587 6.27441 31.3725 6.27441L23.8431 6.27441C22.457 6.27441 21.3333 7.39809 21.3333 8.78422L21.3333 17.5851C21.3333 17.9897 21.2681 18.3917 21.1401 18.7756L21.0196 19.1372L21.3812 19.0166C21.7651 18.8887 22.1671 18.8234 22.5717 18.8234H31.3725Z" fill="#FFB703"/>
<path d="M8.78431 18.8234C7.39819 18.8234 6.27451 17.6998 6.27451 16.3136L6.27451 8.78422C6.27451 7.39809 7.39819 6.27441 8.78431 6.27441L16.3137 6.27441C17.6998 6.27441 18.8235 7.39809 18.8235 8.78422V17.5851C18.8235 17.9897 18.8888 18.3917 19.0167 18.7756L19.1372 19.1372L18.7756 19.0166C18.3918 18.8887 17.9898 18.8234 17.5851 18.8234H8.78431Z" fill="#219EBC"/>
<path fill-rule="evenodd" clip-rule="evenodd" d="M31.3725 31.3725L31.3725 23.843L23.8431 23.843V31.3725H31.3725ZM21.3333 31.3725C21.3333 32.7586 22.457 33.8823 23.8431 33.8823H31.3725C32.7587 33.8823 33.8823 32.7586 33.8823 31.3725V23.843C33.8823 22.4569 32.7587 21.3332 31.3725 21.3332H22.5717C22.2562 21.3332 21.9422 21.2936 21.6372 21.2154C21.5511 21.1933 21.4657 21.1682 21.3812 21.14L21.0196 21.0195L21.1401 21.3811C21.1683 21.4656 21.1934 21.551 21.2155 21.6371C21.2937 21.9421 21.3333 22.2561 21.3333 22.5716V31.3725Z" fill="#219EBC"/>
<mask id="path-3-inside-1_59_1809" fill="white">
<path d="M34.5098 3.83975e-07C37.6286 5.20301e-07 40.1569 2.52828 40.1569 5.64706V14.4314L36.3922 14.4314V5.64706C36.3922 4.60747 35.5494 3.76471 34.5098 3.76471L25.7255 3.76471V0L34.5098 3.83975e-07Z"/>
<path d="M5.64706 40.1569C2.52827 40.1569 -1.36326e-07 37.6286 0 34.5098L3.83975e-07 25.7255H3.76471L3.76471 34.5098C3.76471 35.5494 4.60746 36.3922 5.64706 36.3922L14.4314 36.3922V40.1569H5.64706Z"/>
</mask>
<path d="M40.1569 5.64706H36.3922H40.1569ZM40.1569 14.4314V18.1961H43.9216V14.4314H40.1569ZM36.3922 14.4314H32.6275V18.1961L36.3922 18.1961V14.4314ZM36.3922 5.64706H32.6275H36.3922ZM34.5098 3.76471V-5.84359e-08V3.76471ZM25.7255 3.76471H21.9608V7.52941H25.7255V3.76471ZM25.7255 0V-3.76471L21.9608 -3.76471V0H25.7255ZM5.64706 40.1569V43.9216V40.1569ZM3.83975e-07 25.7255V21.9608H-3.76471V25.7255H3.83975e-07ZM3.76471 25.7255H7.52941V21.9608H3.76471V25.7255ZM3.76471 34.5098H7.52941H3.76471ZM5.64706 36.3922L5.64706 32.6275H5.64706V36.3922ZM14.4314 36.3922H18.1961V32.6275L14.4314 32.6275L14.4314 36.3922ZM14.4314 40.1569V43.9216H18.1961V40.1569H14.4314ZM43.9216 5.64706C43.9216 0.449085 39.7078 -3.76471 34.5098 -3.76471V3.76471C35.5494 3.76471 36.3922 4.60747 36.3922 5.64706L43.9216 5.64706ZM43.9216 14.4314V5.64706H36.3922V14.4314H43.9216ZM36.3922 18.1961L40.1569 18.1961V10.6667L36.3922 10.6667V18.1961ZM32.6275 5.64706V14.4314H40.1569V5.64706H32.6275ZM34.5098 7.52941C33.4702 7.52941 32.6275 6.68665 32.6275 5.64706L40.1569 5.64706C40.1569 2.52828 37.6286 7.78905e-08 34.5098 -5.84359e-08V7.52941ZM25.7255 7.52941L34.5098 7.52941V-5.84359e-08L25.7255 -3.57628e-07V7.52941ZM21.9608 0V3.76471H29.4902V0H21.9608ZM34.5098 -3.76471L25.7255 -3.76471V3.76471L34.5098 3.76471V-3.76471ZM-3.76471 34.5098C-3.76471 39.7078 0.449085 43.9216 5.64706 43.9216V36.3922C4.60746 36.3922 3.76471 35.5494 3.76471 34.5098H-3.76471ZM-3.76471 25.7255L-3.76471 34.5098H3.76471L3.76471 25.7255H-3.76471ZM3.76471 21.9608H3.83975e-07V29.4902H3.76471V21.9608ZM7.52941 34.5098L7.52941 25.7255H-5.84359e-08L-3.57628e-07 34.5098H7.52941ZM5.64706 32.6275C6.68665 32.6275 7.52941 33.4702 7.52941 34.5098H-3.57628e-07C-4.93954e-07 37.6286 2.52827 40.1569 5.64706 40.1569V32.6275ZM14.4314 32.6275H5.64706L5.64706 40.1569L14.4314 40.1569L14.4314 32.6275ZM18.1961 40.1569V36.3922H10.6667V40.1569H18.1961ZM5.64706 43.9216H14.4314V36.3922H5.64706V43.9216Z" fill="#219EBC" mask="url(#path-3-inside-1_59_1809)"/>
<mask id="path-5-inside-2_59_1809" fill="white">
<path d="M5.64706 0C2.52828 -1.36326e-07 5.20301e-07 2.52827 3.83975e-07 5.64706L0 14.4314H3.76471L3.76471 5.64706C3.76471 4.60746 4.60747 3.76471 5.64706 3.76471L14.4314 3.76471L14.4314 3.83975e-07L5.64706 0Z"/>
<path d="M34.5098 40.1569C37.6286 40.1569 40.1569 37.6286 40.1569 34.5098V25.7255H36.3922L36.3922 34.5098C36.3922 35.5494 35.5494 36.3922 34.5098 36.3922H25.7255V40.1569H34.5098Z"/>
</mask>
<path d="M3.83975e-07 5.64706H-3.76471H3.83975e-07ZM5.64706 0V3.76471V0ZM0 14.4314H-3.76471L-3.76471 18.1961H0V14.4314ZM3.76471 14.4314V18.1961H7.52941V14.4314L3.76471 14.4314ZM3.76471 5.64706H-5.84359e-08H3.76471ZM5.64706 3.76471V7.52941V3.76471ZM14.4314 3.76471V7.52941H18.1961L18.1961 3.76471L14.4314 3.76471ZM14.4314 3.83975e-07L18.1961 1.58074e-06V-3.76471H14.4314V3.83975e-07ZM40.1569 34.5098H43.9216H40.1569ZM34.5098 40.1569V36.3922V40.1569ZM40.1569 25.7255H43.9216V21.9608H40.1569V25.7255ZM36.3922 25.7255V21.9608H32.6275L32.6275 25.7255H36.3922ZM36.3922 34.5098H32.6275H36.3922ZM34.5098 36.3922V32.6275V36.3922ZM25.7255 36.3922V32.6275H21.9608V36.3922H25.7255ZM25.7255 40.1569H21.9608V43.9216H25.7255V40.1569ZM3.76471 5.64706C3.76471 4.60746 4.60747 3.76471 5.64706 3.76471L5.64706 -3.76471C0.449085 -3.76471 -3.76471 0.449085 -3.76471 5.64706H3.76471ZM3.76471 14.4314L3.76471 5.64706H-3.76471L-3.76471 14.4314L3.76471 14.4314ZM3.76471 10.6667H0V18.1961H3.76471V10.6667ZM-5.84359e-08 5.64706L-3.57628e-07 14.4314L7.52941 14.4314L7.52941 5.64706H-5.84359e-08ZM5.64706 -3.57628e-07C2.52828 -4.93954e-07 7.78905e-08 2.52827 -5.84359e-08 5.64706H7.52941C7.52941 6.68666 6.68665 7.52941 5.64706 7.52941L5.64706 -3.57628e-07ZM14.4314 -5.84359e-08L5.64706 -3.57628e-07L5.64706 7.52941L14.4314 7.52941L14.4314 -5.84359e-08ZM10.6667 -8.12793e-07L10.6667 3.76471L18.1961 3.76471L18.1961 1.58074e-06L10.6667 -8.12793e-07ZM5.64706 3.76471L14.4314 3.76471V-3.76471L5.64706 -3.76471L5.64706 3.76471ZM36.3922 34.5098C36.3922 35.5494 35.5494 36.3922 34.5098 36.3922V43.9216C39.7078 43.9216 43.9216 39.7078 43.9216 34.5098H36.3922ZM36.3922 25.7255V34.5098H43.9216V25.7255H36.3922ZM36.3922 29.4902H40.1569V21.9608H36.3922V29.4902ZM40.1569 34.5098L40.1569 25.7255L32.6275 25.7255V34.5098L40.1569 34.5098ZM34.5098 40.1569C37.6286 40.1569 40.1569 37.6286 40.1569 34.5098H32.6275C32.6275 33.4702 33.4702 32.6275 34.5098 32.6275V40.1569ZM25.7255 40.1569H34.5098V32.6275H25.7255V40.1569ZM29.4902 40.1569V36.3922H21.9608V40.1569H29.4902ZM34.5098 36.3922H25.7255V43.9216H34.5098V36.3922Z" fill="#FFB703" mask="url(#path-5-inside-2_59_1809)"/>
</svg>
